<svg version="1.1" id="Layer_1" xmlns="http://www.w3.org/2000/svg" xmlns:xlink="http://www.w3.org/1999/xlink" x="0px" y="0px"
	 width="100%" viewBox="0 0 256 256" enable-background="new 0 0 256 256" xml:space="preserve">
<path fill="#031131" opacity="1.000000" stroke="none" 
	d="
M145.000000,257.000000 
	C96.666672,257.000000 48.833340,257.000000 1.000006,257.000000 
	C1.000004,171.666672 1.000004,86.333351 1.000002,1.000018 
	C86.333321,1.000012 171.666641,1.000012 257.000000,1.000006 
	C257.000000,86.333313 257.000000,171.666626 257.000000,256.999969 
	C219.833328,257.000000 182.666672,257.000000 145.000000,257.000000 
M73.874977,184.480316 
	C73.581726,184.323975 73.288475,184.167633 72.577339,183.497498 
	C66.300529,179.502487 63.389072,173.083389 60.431129,166.175232 
	C60.372318,165.845352 60.313507,165.515488 60.476562,164.888168 
	C60.356129,164.565109 60.235695,164.242065 60.109364,162.991882 
	C60.022903,149.680679 59.936447,136.369461 60.010651,122.168358 
	C59.959660,119.776581 59.908669,117.384811 60.027130,114.147682 
	C59.966446,112.428802 59.905762,110.709923 60.012562,108.104057 
	C59.960304,105.398651 59.908051,102.693237 60.012257,99.063858 
	C59.928070,93.895874 59.843884,88.727890 59.930962,82.861206 
	C59.930962,81.679787 59.930962,80.498375 59.930962,77.896538 
	C57.673363,81.435890 56.008793,83.664658 54.751579,86.103416 
	C52.731297,90.022369 50.980263,94.080109 48.998711,98.855347 
	C48.147339,101.887405 47.295967,104.919456 46.119156,108.573387 
	C45.722198,110.969406 45.325241,113.365425 44.563168,116.520424 
	C44.380280,119.678238 44.197392,122.836052 43.819241,126.785164 
	C43.872345,127.866058 43.925449,128.946945 43.819153,130.935043 
	C44.542709,136.626328 45.266266,142.317612 45.949722,148.805649 
	C48.543613,160.381073 53.744953,170.700531 61.298935,180.623199 
	C69.166374,187.166489 77.033821,193.709778 85.279732,200.747620 
	C86.229530,201.128708 87.179329,201.509781 88.763474,202.172943 
	C105.927620,210.798691 123.928833,214.310242 143.811768,211.153580 
	C146.202774,210.591919 148.593765,210.030273 151.589600,209.689850 
	C155.220963,208.532578 158.852310,207.375320 162.483658,206.218048 
	C160.754364,204.943527 159.317902,204.895889 157.883270,204.815521 
	C149.907303,204.368729 143.052048,201.270477 139.359589,194.138535 
	C136.590179,188.789459 133.036942,187.297913 127.513260,187.838989 
	C123.405334,188.241348 119.220779,188.051010 115.079597,187.888702 
	C102.365822,187.390396 89.656502,186.778534 76.506905,186.028412 
	C76.506905,186.028412 76.034470,185.981781 75.702080,185.484909 
	C75.149727,185.288406 74.597366,185.091919 74.013847,184.968201 
	C74.013847,184.968201 74.088646,184.942245 73.874977,184.480316 
M201.812790,144.146835 
	C201.812790,144.146835 201.684799,144.157669 201.769852,144.803482 
	C202.103165,145.349136 202.436462,145.894806 202.924484,147.123917 
	C205.108063,151.645737 207.291641,156.167542 209.475220,160.689362 
	C210.135834,160.675888 210.796463,160.662399 211.457092,160.648926 
	C212.954422,152.770798 214.451736,144.892685 216.167084,136.133163 
	C216.165787,133.425507 216.164474,130.717865 216.371582,127.161926 
	C216.248459,125.429443 216.125336,123.696960 215.881180,121.206123 
	C215.567276,119.462273 215.253357,117.718422 215.214676,115.173851 
	C214.498566,112.082375 213.782440,108.990891 212.825195,105.200012 
	C212.173798,103.155418 211.522385,101.110832 210.898987,98.335426 
	C207.590118,93.225662 206.722977,86.438545 200.204285,82.609596 
	C200.204285,88.850662 200.204285,94.420753 200.026520,100.778297 
	C200.083801,101.850067 200.141098,102.921837 200.026031,104.840637 
	C200.074524,106.575371 200.123016,108.310112 199.998550,110.935120 
	C200.062881,113.963020 200.127213,116.990921 200.078918,120.683418 
	C200.119690,121.129150 200.160461,121.574890 200.014709,122.937790 
	C200.318619,129.642517 200.622543,136.347244 201.000000,143.008713 
	C201.000000,143.008713 200.928055,143.059570 201.005341,143.589188 
	C201.264084,143.816605 201.522827,144.044022 201.812790,144.146835 
M167.428116,109.035973 
	C167.264755,109.343483 167.101379,109.650986 166.817230,109.867737 
	C166.817230,109.867737 166.722733,109.985649 166.168121,110.308113 
	C161.745239,114.158195 157.322342,118.008278 152.899460,121.858368 
	C153.359421,122.318031 153.819382,122.777695 154.279358,123.237358 
	C155.899460,125.487457 157.519577,127.737556 159.189072,130.702698 
	C160.525314,133.480972 161.861542,136.259232 162.922302,138.464722 
	C167.656189,137.846176 171.759125,137.310059 175.899704,136.769043 
	C175.899704,133.233414 175.899704,129.627853 176.058014,125.103447 
	C176.012680,121.074684 175.967346,117.045929 176.084000,112.221718 
	C176.033752,111.144905 175.983505,110.068100 176.101990,108.278038 
	C175.731171,106.013107 175.360367,103.748184 174.989563,101.483253 
	C174.569290,101.486084 174.149033,101.488907 173.728760,101.491737 
	C172.477646,103.319023 171.226532,105.146309 170.000000,107.000000 
	C170.000000,107.000000 169.974747,106.974831 169.420105,107.173828 
	C168.916718,107.764206 168.413315,108.354591 167.974289,108.984329 
	C167.974289,108.984329 167.964661,108.909500 167.428116,109.035973 
M126.424339,151.738693 
	C126.255844,151.773865 126.087341,151.809021 125.098465,151.936584 
	C118.489159,154.507217 112.663986,152.490555 106.960014,148.204788 
	C103.362740,144.435211 99.765465,140.665634 95.774536,136.347488 
	C93.655182,132.937195 91.535828,129.526886 89.443321,125.711708 
	C89.443321,125.711708 89.186981,125.397179 89.392860,124.718399 
	C89.260803,123.167992 89.128746,121.617584 89.024666,119.361725 
	C90.079445,117.353546 91.134224,115.345375 92.786201,112.977112 
	C96.275352,108.902588 100.897934,107.762573 106.653778,108.122620 
	C107.115112,108.142288 107.576454,108.161957 108.198189,108.324097 
	C108.198189,108.324097 108.380554,108.211090 108.885025,108.734566 
	C112.278526,111.249313 115.672020,113.764061 119.459724,116.570930 
	C121.257683,114.435272 123.124214,112.218170 125.371819,109.453644 
	C127.325142,107.696602 129.278473,105.939560 131.725037,104.014481 
	C131.917374,103.736931 132.109726,103.459373 132.888397,102.861107 
	C134.565643,101.863556 136.242889,100.866005 137.920151,99.868446 
	C137.433105,99.246857 136.946075,98.625259 136.459030,98.003670 
	C121.635521,98.003670 106.812004,98.003670 91.149002,97.838547 
	C89.448044,97.884995 87.747093,97.931442 85.442673,97.896759 
	C85.260117,97.985451 85.077560,98.074150 84.514420,98.052582 
	C84.514420,98.052582 84.116516,98.075882 83.510895,98.639618 
	C83.347801,99.273277 83.043449,99.906670 83.042236,100.540634 
	C83.011124,116.810226 82.987305,133.079971 83.056229,149.349289 
	C83.061348,150.556732 83.772110,151.761185 84.550682,153.544693 
	C87.057190,161.639038 89.297295,163.288971 98.163429,163.619614 
	C98.490402,163.509369 98.817383,163.399124 99.587601,163.190506 
	C99.587601,163.190506 100.020508,163.053665 100.532974,163.174728 
	C100.707359,163.155731 100.881737,163.136749 101.709816,163.140839 
	C102.143517,163.100311 102.577209,163.059784 103.944824,163.074463 
	C111.567154,163.071762 119.199448,163.283386 126.805435,162.929474 
	C128.952591,162.829544 131.022720,161.074310 133.834076,159.889984 
	C136.181808,158.916840 138.529526,157.943695 141.422302,156.744614 
	C139.896835,153.970551 138.517746,151.462662 137.002686,148.281769 
	C136.299454,146.923004 135.596222,145.564240 134.425613,143.302429 
	C132.860489,145.687851 131.844925,147.235672 130.914078,148.813721 
	C130.914078,148.813721 130.826324,148.833435 130.171539,148.816757 
	C129.082169,149.843872 127.992805,150.870987 126.991295,151.902420 
	C126.991295,151.902420 126.931007,151.838379 126.424339,151.738693 
M77.049583,99.143936 
	C76.998138,97.425751 76.946701,95.707573 77.067520,93.209930 
	C77.495186,89.598068 80.229248,89.946632 82.723747,89.945518 
	C102.023003,89.936859 121.322258,89.940742 140.608017,89.940742 
	C141.731033,87.477470 142.760635,85.219093 144.213577,82.516075 
	C144.817886,81.709221 145.422195,80.902367 146.689270,79.825668 
	C155.229752,73.489799 163.231415,73.917259 172.134583,81.827972 
	C173.370483,84.244331 174.606384,86.660683 176.239944,89.755493 
	C178.486069,90.189087 180.732208,90.622681 182.997620,91.922958 
	C183.050156,93.943810 183.102692,95.964668 183.018646,98.810440 
	C183.070312,100.200684 183.121979,101.590935 183.048126,103.780556 
	C183.275391,104.828316 183.502655,105.876076 183.446930,107.575516 
	C183.532364,109.667282 183.617798,111.759041 183.392441,114.662537 
	C183.441971,115.815117 183.491486,116.967697 183.304718,118.938873 
	C183.354980,120.925743 183.405243,122.912613 183.235825,125.796967 
	C183.235825,128.911743 183.235825,132.026520 183.235825,135.290894 
	C186.221405,135.290894 188.805939,135.290894 192.041214,135.290894 
	C191.886246,131.777557 191.735458,128.358688 191.601227,124.188614 
	C191.667160,122.428993 191.733078,120.669373 191.765045,118.430244 
	C191.578766,118.155823 191.331879,117.956451 191.005630,117.390915 
	C191.005630,117.390915 190.874847,116.969124 190.972534,116.174034 
	C190.929016,115.109947 190.885498,114.045853 190.988617,112.358192 
	C191.239410,111.001785 191.490204,109.645378 191.872116,107.637741 
	C191.823212,106.109840 191.774307,104.581947 191.879730,102.395317 
	C191.859070,101.257210 191.838409,100.119095 191.694931,98.221581 
	C191.416534,96.476974 191.138138,94.732368 190.990860,92.194397 
	C190.946762,91.126442 190.902649,90.058495 191.003448,88.198997 
	C190.959549,87.130463 190.915634,86.061920 191.182602,84.298103 
	C191.362701,82.855080 191.542816,81.412056 191.856522,79.209503 
	C191.491791,77.470085 191.127045,75.730675 190.704498,73.314117 
	C185.188034,64.528862 181.390427,62.438763 174.622284,64.855118 
	C177.412277,68.731194 180.139557,72.520157 182.957916,77.072350 
	C183.065277,78.065575 183.172638,79.058807 182.583725,80.280739 
	C181.017944,79.616562 179.452164,78.952385 177.842361,78.244225 
	C177.842361,78.244225 177.788162,78.274811 177.580887,77.615509 
	C172.955261,68.186493 164.919601,64.236732 154.899353,64.120438 
	C138.256546,63.927254 121.589539,63.603233 104.976067,64.327866 
	C99.340347,64.573677 93.774780,67.670723 88.330086,69.847366 
	C87.406967,70.216393 87.260696,72.528633 86.192696,74.099129 
	C84.192146,75.963074 82.191589,77.827026 79.495026,79.793938 
	C78.598907,79.875893 77.702782,79.957848 76.740906,79.280174 
	C77.941833,76.557426 79.142761,73.834671 80.948006,70.665627 
	C82.718109,68.479897 84.488213,66.294159 86.108116,64.293884 
	C76.019661,63.237579 71.967529,65.787788 67.996338,75.291878 
	C67.666245,76.181534 67.050102,77.070518 67.047989,77.960953 
	C66.997841,99.039627 66.999527,120.118500 67.053108,141.197174 
	C67.056320,142.460220 67.570724,143.721939 68.013062,145.856842 
	C68.201180,148.448929 68.389305,151.041016 68.272148,154.531845 
	C67.748695,160.420822 68.024071,166.126022 72.311371,171.590576 
	C76.358536,176.876068 81.839035,179.089706 88.358292,179.087509 
	C100.483459,179.083435 112.608643,179.093292 124.733772,179.071045 
	C126.309433,179.068161 127.884811,178.909622 129.552048,178.818161 
	C127.623039,170.998520 127.623055,171.014145 120.694061,171.022247 
	C112.887474,171.031372 105.042847,171.466232 97.288971,170.822342 
	C92.873947,170.455734 88.607124,168.304382 83.931122,166.439117 
	C83.306465,165.936554 82.681808,165.433990 82.027275,165.009201 
	C82.027275,165.009201 82.079315,164.943298 81.959732,164.237885 
	C77.669670,158.134491 76.771706,151.185944 77.006187,143.100311 
	C76.959854,141.038483 76.913521,138.976654 76.981812,136.072998 
	C76.942642,134.366684 76.903473,132.660385 77.001686,130.066849 
	C76.966621,127.368599 76.931564,124.670349 77.022308,121.081490 
	C76.984375,118.383629 76.946434,115.685760 77.034134,112.136742 
	C76.988914,110.420639 76.943703,108.704544 77.041786,106.122536 
	C76.994827,104.079231 76.947868,102.035919 77.049583,99.143936 
M151.051529,176.970291 
	C151.051529,176.970291 151.074432,176.901550 150.823730,176.294662 
	C149.665588,174.311447 148.507431,172.328247 147.122955,169.587799 
	C145.050919,167.292862 142.879471,164.376770 139.489380,166.535507 
	C138.143188,167.392731 137.994171,170.129990 137.389099,172.604996 
	C137.972733,173.415115 138.556366,174.225250 139.181778,175.640930 
	C139.721481,176.481033 140.261185,177.321136 140.934586,178.870911 
	C143.629059,183.211639 146.323532,187.552353 149.323944,192.487228 
	C150.270691,192.988678 151.217422,193.490112 152.399139,194.584930 
	C153.623856,194.830811 154.848557,195.076691 156.778275,195.602402 
	C157.529648,195.576599 158.281006,195.550797 159.497437,195.695175 
	C159.497437,195.695175 159.963913,195.528870 160.650330,195.673660 
	C161.116302,195.650223 161.582291,195.626801 162.734344,195.906311 
	C168.287521,197.319366 173.035995,199.730316 174.557632,205.949371 
	C174.557632,205.949371 174.172073,206.101761 173.398804,206.039902 
	C172.264755,206.694885 171.130707,207.349854 170.013031,208.739716 
	C172.009277,212.479919 174.262558,216.109756 175.929581,219.991364 
	C177.601425,223.884232 179.421524,223.918030 182.478760,220.683960 
	C183.004852,220.105896 183.530960,219.527847 184.892410,218.989349 
	C193.639954,215.683731 202.387497,212.378113 211.861023,209.014648 
	C213.476227,207.541443 216.643921,205.714432 216.404510,204.663879 
	C215.780838,201.927170 213.663116,199.530945 212.066437,196.192642 
	C211.608475,194.054932 211.150513,191.917221 210.666412,189.657486 
	C208.592239,190.662216 207.147324,191.362137 205.316757,191.431580 
	C204.836197,188.631973 204.355637,185.832352 204.030289,182.370728 
	C204.015869,181.920227 204.001465,181.469727 204.307968,180.275909 
	C203.885422,176.150040 203.462860,172.024185 202.983948,167.354645 
	C202.879456,167.205399 202.774948,167.056168 202.517380,166.271622 
	C201.384598,164.126190 200.251816,161.980759 199.001404,159.110184 
	C198.619141,158.495239 198.236893,157.880310 197.776993,156.864548 
	C197.517212,156.548279 197.257431,156.232025 197.007950,155.988373 
	C197.007950,155.988373 197.079971,155.974548 197.015213,155.251740 
	C195.441040,152.161758 194.314514,148.687454 192.119370,146.130585 
	C190.867477,144.672409 187.872467,144.710770 185.662369,144.075241 
	C185.358673,145.717346 185.197571,147.402924 184.713730,148.990128 
	C184.157852,150.813705 183.702621,153.603973 182.496658,154.046188 
	C181.123398,154.549728 178.778076,153.199280 177.226654,152.120514 
	C176.298859,151.475372 176.406250,149.265961 175.479080,148.711395 
	C173.598190,147.586411 171.111786,146.158600 169.273132,146.582504 
	C166.423508,147.239517 167.734436,149.583130 168.398651,151.780029 
	C168.977814,153.695557 168.734283,156.397247 167.706787,158.029053 
	C167.210526,158.817154 164.077423,157.944916 161.952499,157.136032 
	C158.304703,149.630402 154.656906,142.124771 150.869568,133.975311 
	C149.350555,130.427048 147.331711,127.124252 142.902908,129.499695 
	C139.081619,131.549301 140.080658,134.843140 142.166138,138.590073 
	C147.168335,149.032059 152.204697,159.457855 157.158844,169.922577 
	C159.793045,175.486893 158.041122,178.025589 151.749191,177.309891 
	C151.531830,177.123230 151.285446,176.990234 151.051529,176.970291 
M69.317940,50.102772 
	C67.869797,52.061974 66.421661,54.021175 64.274139,56.088577 
	C56.673450,60.697693 53.127861,69.524323 56.591885,77.339294 
	C58.953491,72.976860 60.993492,69.208496 63.707439,65.119591 
	C66.341118,62.808495 68.775688,60.202347 71.656868,58.257996 
	C75.614891,55.586945 79.911171,53.417133 84.743141,51.012989 
	C85.832550,50.344585 86.921967,49.676182 88.771492,48.984043 
	C91.222008,48.433403 94.697098,47.377941 91.966408,44.654854 
	C90.160995,42.854469 85.866089,43.018570 82.749062,43.231220 
	C80.186111,43.406063 77.022026,44.130245 76.319740,47.980907 
	C75.879562,47.984776 75.439392,47.988644 74.566483,47.522011 
	C73.044479,48.348064 71.522484,49.174118 69.317940,50.102772 
M150.660934,57.001816 
	C151.111038,57.004539 151.561157,57.007263 152.627197,57.548634 
	C156.744995,57.371426 160.862793,57.194218 165.862320,57.003471 
	C168.572815,56.649559 171.283325,56.295643 174.169281,55.559822 
	C173.786179,54.991192 173.403091,54.422558 173.473541,53.415989 
	C174.328979,52.869484 175.184433,52.322979 176.718475,51.975239 
	C178.444946,52.641624 180.171432,53.308014 182.023468,54.674633 
	C189.476318,57.739223 194.721573,63.247646 199.435349,70.335594 
	C200.294861,71.237808 201.154388,72.140022 202.013702,73.767502 
	C202.902664,75.203148 203.791626,76.638802 205.025574,78.631561 
	C206.121582,77.039818 206.510513,76.528893 206.843201,75.983658 
	C211.203522,68.837540 199.262878,55.223854 190.621567,51.748058 
	C190.363480,51.556252 190.177292,51.310070 190.462677,50.558647 
	C189.827744,49.729233 189.366837,48.506771 188.528931,48.135723 
	C183.915176,46.092663 179.297577,43.971771 174.492844,42.487774 
	C172.486206,41.868008 169.824707,42.305187 167.835419,43.146824 
	C166.859558,43.559700 166.719772,45.987514 166.238174,47.514957 
	C165.958878,48.400764 165.752136,49.309452 164.787094,50.128231 
	C151.074585,44.883511 136.884247,42.554367 122.270439,44.046631 
	C109.649948,45.335358 97.348686,48.036827 86.188454,55.317318 
	C86.077904,55.556713 86.071060,55.799313 86.746552,56.594814 
	C90.830528,56.729931 94.914497,56.865047 99.627083,57.545322 
	C115.840050,57.668156 132.052979,57.800323 148.266174,57.875305 
	C148.838058,57.877953 149.412552,57.312965 150.660934,57.001816 
M102.792061,116.458557 
	C97.286591,119.015694 95.831863,123.320084 99.568581,127.385033 
	C104.410599,132.652390 109.470993,137.766129 114.877769,142.436127 
	C116.346329,143.704575 120.404671,144.246994 121.547218,143.213394 
	C125.718285,139.440094 130.773636,136.424881 132.466156,130.137878 
	C133.318054,126.973473 136.137604,122.954788 138.983170,121.970825 
	C147.487045,119.030334 151.517914,111.498299 158.158951,106.155037 
	C155.095337,103.263657 152.380371,100.701347 148.758041,97.282669 
	C138.411438,107.833054 128.327148,118.115974 117.981598,128.665283 
	C116.578331,127.139297 115.272141,125.354324 113.616264,123.995483 
	C110.353935,121.318329 106.897606,118.877586 102.792061,116.458557 
M152.028381,86.463341 
	C149.566193,88.872208 149.236816,91.077675 152.259247,93.441071 
	C154.468491,95.168610 156.566132,97.122681 158.366974,99.266853 
	C160.476059,101.778053 162.286240,100.983742 164.251831,99.331345 
	C167.584839,96.529419 168.295090,91.141808 165.812988,87.611992 
	C162.882660,83.444756 158.122864,82.845467 152.028381,86.463341 
z"/>
<path fill="#F5F6F6" opacity="1.000000" stroke="none" 
	d="
M103.156784,116.398804 
	C106.897606,118.877586 110.353935,121.318329 113.616264,123.995483 
	C115.272141,125.354324 116.578331,127.139297 117.981598,128.665283 
	C128.327148,118.115974 138.411438,107.833054 148.758041,97.282669 
	C152.380371,100.701347 155.095337,103.263657 158.158951,106.155037 
	C151.517914,111.498299 147.487045,119.030334 138.983170,121.970825 
	C136.137604,122.954788 133.318054,126.973473 132.466156,130.137878 
	C130.773636,136.424881 125.718285,139.440094 121.547218,143.213394 
	C120.404671,144.246994 116.346329,143.704575 114.877769,142.436127 
	C109.470993,137.766129 104.410599,132.652390 99.568581,127.385033 
	C95.831863,123.320084 97.286591,119.015694 103.156784,116.398804 
z"/>
<path fill="#782253" opacity="1.000000" stroke="none" 
	d="
M76.945450,186.210831 
	C89.656502,186.778534 102.365822,187.390396 115.079597,187.888702 
	C119.220779,188.051010 123.405334,188.241348 127.513260,187.838989 
	C133.036942,187.297913 136.590179,188.789459 139.359589,194.138535 
	C143.052048,201.270477 149.907303,204.368729 157.883270,204.815521 
	C159.317902,204.895889 160.754364,204.943527 162.483658,206.218048 
	C158.852310,207.375320 155.220963,208.532578 151.080261,209.231796 
	C146.826172,206.960052 141.268524,206.057617 139.785446,203.107086 
	C137.835007,199.226776 136.020294,199.460037 132.952591,199.608429 
	C130.926834,198.501724 129.041687,197.234436 127.071190,197.083801 
	C116.065224,196.242401 105.043915,195.306641 94.017029,195.146088 
	C87.544685,195.051865 81.553864,194.543289 76.478790,189.988037 
	C76.624458,188.808990 76.784958,187.509918 76.945450,186.210831 
z"/>
<path fill="#F0F3F4" opacity="1.000000" stroke="none" 
	d="
M86.755508,73.943085 
	C87.260696,72.528633 87.406967,70.216393 88.330086,69.847366 
	C93.774780,67.670723 99.340347,64.573677 104.976067,64.327866 
	C121.589539,63.603233 138.256546,63.927254 154.899353,64.120438 
	C164.919601,64.236732 172.955261,68.186493 177.236298,77.864822 
	C173.200180,76.055710 169.614319,72.478935 165.798019,72.213348 
	C152.433319,71.283257 138.989197,71.494812 125.212097,71.185410 
	C121.890160,71.707748 118.931343,72.317467 115.771851,72.608917 
	C112.370735,72.197296 109.170319,72.103943 105.666061,71.910683 
	C101.703644,69.942131 98.341446,70.322227 94.945206,72.985840 
	C91.978676,73.204124 89.367088,73.573601 86.755508,73.943085 
z"/>
<path fill="#FB4645" opacity="1.000000" stroke="none" 
	d="
M162.048264,195.603363 
	C161.582291,195.626801 161.116302,195.650223 160.213715,195.490051 
	C159.470795,195.174973 159.222549,195.247818 159.032379,195.524994 
	C158.281006,195.550797 157.529648,195.576599 156.267319,195.197754 
	C154.558960,194.525925 153.361572,194.258743 152.164169,193.991562 
	C151.217422,193.490112 150.270691,192.988678 149.179626,191.853729 
	C149.617920,190.627563 150.112869,189.662994 150.797195,189.501663 
	C155.838501,188.313095 160.875488,186.761917 165.996384,186.349304 
	C171.411133,185.912994 176.511078,185.192688 181.678070,183.195831 
	C186.924957,181.168106 192.748199,180.660110 198.274887,179.306335 
	C199.526657,178.999741 200.596207,177.949265 201.619400,177.321167 
	C202.405640,178.549194 203.196350,179.784210 203.987061,181.019226 
	C204.001465,181.469727 204.015869,181.920227 203.720184,182.984344 
	C202.921707,186.602448 203.156723,189.732727 198.477570,190.053909 
	C195.956253,190.227020 193.652924,192.559998 191.102875,193.527374 
	C184.445465,196.052917 177.675232,197.153915 170.507385,195.450500 
	C167.849869,194.818970 164.877213,195.513550 162.048264,195.603363 
z"/>
<path fill="#1B4573" opacity="1.000000" stroke="none" 
	d="
M84.273567,166.956711 
	C88.607124,168.304382 92.873947,170.455734 97.288971,170.822342 
	C105.042847,171.466232 112.887474,171.031372 120.694061,171.022247 
	C127.623055,171.014145 127.623039,170.998520 129.552048,178.818161 
	C127.884811,178.909622 126.309433,179.068161 124.733772,179.071045 
	C112.608643,179.093292 100.483459,179.083435 88.358292,179.087509 
	C81.839035,179.089706 76.358536,176.876068 72.427811,171.035095 
	C73.698654,166.861374 75.274414,164.379303 79.439308,167.500046 
	C79.910408,167.853027 81.129791,167.207352 82.379944,167.019470 
	C83.262993,166.995010 83.768280,166.975861 84.273567,166.956711 
z"/>
<path fill="#9DD1E0" opacity="1.000000" stroke="none" 
	d="
M143.790237,82.960724 
	C142.760635,85.219093 141.731033,87.477470 140.608017,89.940742 
	C121.322258,89.940742 102.023003,89.936859 82.723747,89.945518 
	C80.229248,89.946632 77.495186,89.598068 76.584503,93.606926 
	C71.432320,94.069344 73.502548,97.693420 72.751549,99.961891 
	C72.536728,99.982559 72.110542,100.050789 72.070045,99.595215 
	C72.042526,96.095001 72.055504,93.050346 72.304535,89.752342 
	C74.087555,88.497314 75.525833,86.907715 77.200737,86.598091 
	C83.657379,85.404518 90.189667,84.620102 97.023170,83.810745 
	C101.727394,86.272369 104.931503,84.348701 108.219826,81.066505 
	C110.781570,81.037010 112.888016,81.016472 115.265068,81.213776 
	C119.821152,86.004326 122.266167,86.130836 128.163651,82.053055 
	C132.099396,81.766998 135.562698,81.271156 139.020584,81.306381 
	C140.615921,81.322632 142.200684,82.377029 143.790237,82.960724 
z"/>
<path fill="#EE8327" opacity="1.000000" stroke="none" 
	d="
M140.800903,178.161240 
	C140.261185,177.321136 139.721481,176.481033 139.383392,175.080109 
	C141.155640,174.363266 142.833511,173.783340 144.272583,174.147400 
	C146.621765,174.741699 148.815262,175.951462 151.074432,176.901550 
	C151.074432,176.901550 151.051529,176.970291 151.175751,177.089722 
	C151.467300,177.435516 151.685638,177.589401 151.954971,177.670822 
	C158.041122,178.025589 159.793045,175.486893 157.158844,169.922577 
	C152.204697,159.457855 147.168335,149.032059 142.332855,138.241852 
	C142.499557,137.893616 142.909592,137.909775 143.209778,138.087189 
	C146.381577,143.262924 149.324051,148.222229 152.104599,153.270706 
	C154.799728,158.164062 157.328445,163.149078 159.948334,168.486481 
	C161.115234,170.246750 162.151184,172.678375 163.430679,172.814102 
	C173.938385,173.928726 184.206268,172.457321 193.523117,167.389008 
	C196.019409,166.031052 197.287231,162.414825 199.119019,159.835327 
	C200.251816,161.980759 201.384598,164.126190 202.267914,166.671906 
	C199.344116,168.713089 196.835464,170.781494 193.957474,171.896957 
	C189.384613,173.669357 184.603104,174.954880 179.838318,176.164551 
	C175.928162,177.157242 171.848907,177.506744 167.969315,178.588547 
	C165.503250,179.276199 163.265198,180.781586 160.517059,181.947906 
	C153.318863,183.731842 147.070755,183.364426 142.171173,177.485367 
	C142.094757,177.393692 141.274185,177.922180 140.800903,178.161240 
z"/>
<path fill="#F2454A" opacity="1.000000" stroke="none" 
	d="
M143.037399,211.056244 
	C123.928833,214.310242 105.927620,210.798691 88.718185,201.780060 
	C90.448570,201.232193 92.224251,201.077209 94.338951,200.946091 
	C95.130310,200.948822 95.582642,200.927704 96.472916,200.950119 
	C99.260323,200.961868 101.609795,200.930054 104.305023,200.925079 
	C105.112556,200.936127 105.574341,200.920319 106.427315,200.949875 
	C107.867157,200.967270 108.915817,200.939301 110.346542,200.942917 
	C111.494278,200.953445 112.259949,200.932388 113.349060,200.950043 
	C114.104858,200.960037 114.537231,200.931305 115.310669,200.928207 
	C116.107292,200.939911 116.562851,200.925964 117.259308,200.942017 
	C117.500214,200.972000 117.983208,200.922470 118.415085,200.953644 
	C120.578407,200.958191 122.309868,200.931549 124.479919,200.948273 
	C127.953499,201.670715 131.382935,201.684494 133.926468,203.192490 
	C137.323456,205.206528 140.032761,208.380463 143.037399,211.056244 
z"/>
<path fill="#F4F3EB" opacity="1.000000" stroke="none" 
	d="
M162.138260,157.824448 
	C164.077423,157.944916 167.210526,158.817154 167.706787,158.029053 
	C168.734283,156.397247 168.977814,153.695557 168.398651,151.780029 
	C167.734436,149.583130 166.423508,147.239517 169.273132,146.582504 
	C171.111786,146.158600 173.598190,147.586411 175.479080,148.711395 
	C176.406250,149.265961 176.298859,151.475372 177.226654,152.120514 
	C178.778076,153.199280 181.123398,154.549728 182.496658,154.046188 
	C183.702621,153.603973 184.157852,150.813705 184.713730,148.990128 
	C185.197571,147.402924 185.358673,145.717346 185.662369,144.075256 
	C187.872467,144.710770 190.867477,144.672409 192.119370,146.130585 
	C194.314514,148.687454 195.441040,152.161758 196.631256,155.713562 
	C192.967010,155.166306 190.880310,156.231415 188.700882,159.048325 
	C187.493713,160.608566 183.910126,161.738693 182.061386,161.110260 
	C177.786285,159.657089 175.412155,160.688324 173.525452,164.823441 
	C166.928497,167.086945 164.336853,165.401993 162.138260,157.824448 
z"/>
<path fill="#952850" opacity="1.000000" stroke="none" 
	d="
M117.018402,200.912018 
	C116.562851,200.925964 116.107292,200.939911 115.154991,200.742157 
	C114.114037,200.657425 113.569832,200.784363 113.025627,200.911316 
	C112.259949,200.932388 111.494278,200.953445 110.120880,200.719696 
	C108.354149,200.611420 107.195137,200.757965 106.036133,200.904510 
	C105.574341,200.920319 105.112556,200.936127 104.068802,200.694946 
	C101.002892,200.594162 98.518936,200.750366 96.034981,200.906570 
	C95.582642,200.927704 95.130310,200.948822 94.252411,200.611969 
	C91.112259,199.682312 88.402794,199.080338 85.669899,198.616470 
	C85.510857,198.589478 85.161858,199.681702 84.901260,200.253067 
	C77.033821,193.709778 69.166374,187.166489 61.393692,180.065918 
	C61.145958,175.231201 60.803467,170.953735 60.460976,166.676285 
	C63.389072,173.083389 66.300529,179.502487 72.910629,183.970184 
	C73.465630,184.710556 73.747208,184.877014 74.088646,184.942245 
	C74.088646,184.942245 74.013847,184.968201 74.185516,185.193878 
	C74.916275,185.606949 75.475372,185.794373 76.034470,185.981781 
	C76.034470,185.981781 76.506905,186.028412 76.726181,186.119629 
	C76.784958,187.509918 76.624458,188.808990 76.478790,189.988037 
	C81.553864,194.543289 87.544685,195.051865 94.017029,195.146088 
	C105.043915,195.306641 116.065224,196.242401 127.071190,197.083801 
	C129.041687,197.234436 130.926834,198.501724 132.509491,199.619537 
	C129.458847,200.292068 126.750084,200.598495 124.041321,200.904907 
	C122.309868,200.931549 120.578407,200.958191 118.320648,200.822723 
	C117.470375,200.479675 117.211731,200.563477 117.018402,200.912018 
z"/>
<path fill="#F8A617" opacity="1.000000" stroke="none" 
	d="
M173.868225,164.641891 
	C175.412155,160.688324 177.786285,159.657089 182.061386,161.110260 
	C183.910126,161.738693 187.493713,160.608566 188.700882,159.048325 
	C190.880310,156.231415 192.967010,155.166306 196.663635,156.074966 
	C197.079971,155.974548 197.007950,155.988373 197.024551,156.174255 
	C197.312317,156.661865 197.583466,156.963623 197.854630,157.265366 
	C198.236893,157.880310 198.619141,158.495239 199.060211,159.472748 
	C197.287231,162.414825 196.019409,166.031052 193.523117,167.389008 
	C184.206268,172.457321 173.938385,173.928726 163.430679,172.814102 
	C162.151184,172.678375 161.115234,170.246750 160.118835,168.266510 
	C161.305344,166.850540 162.339417,166.047195 163.543884,165.111496 
	C163.799744,165.407639 164.259262,166.463242 164.889938,166.577942 
	C167.480896,167.049179 170.122025,167.347488 172.750015,167.391205 
	C173.107407,167.397141 173.494751,165.602722 173.868225,164.641891 
z"/>
<path fill="#E2E9ED" opacity="1.000000" stroke="none" 
	d="
M72.068481,90.005699 
	C72.055504,93.050346 72.042526,96.095001 72.043098,100.018372 
	C72.100113,102.596359 72.143570,104.295616 72.138176,106.425949 
	C72.133377,108.588753 72.177437,110.320473 72.165215,112.501015 
	C72.127159,115.976982 72.145378,119.004128 72.107727,122.471008 
	C72.077080,125.275871 72.102295,127.641006 72.057953,130.388748 
	C71.717140,132.520035 71.445900,134.268692 71.114456,136.437469 
	C70.995514,138.552917 70.936768,140.248245 70.671684,141.983780 
	C70.465347,142.023972 70.073769,142.177048 69.785828,142.093536 
	C69.109993,141.935654 68.722107,141.861298 68.314545,141.457047 
	C68.292740,140.466202 68.290604,139.805252 68.457123,139.026749 
	C68.500069,138.567093 68.374367,138.225006 68.234581,137.421844 
	C68.295990,116.557495 68.371498,96.154182 68.447006,75.750877 
	C71.967529,65.787788 76.019661,63.237579 86.108116,64.293884 
	C84.488213,66.294159 82.718109,68.479897 80.562660,70.483063 
	C79.402206,67.604126 77.539177,67.556946 76.291916,69.443573 
	C74.532036,72.105598 73.454605,75.218788 72.078568,78.591042 
	C72.070641,82.697227 72.069565,86.351463 72.068481,90.005699 
z"/>
<path fill="#F6523D" opacity="1.000000" stroke="none" 
	d="
M140.867737,178.516083 
	C141.274185,177.922180 142.094757,177.393692 142.171173,177.485367 
	C147.070755,183.364426 153.318863,183.731842 160.937225,181.973724 
	C165.742142,181.637527 169.726700,181.374954 173.694443,180.954041 
	C182.285461,180.042694 190.444855,177.674088 198.169434,173.740860 
	C199.428375,173.099838 201.093887,173.257355 203.040314,172.978653 
	C203.040314,171.834015 203.040314,169.866165 203.040314,167.898315 
	C203.462860,172.024185 203.885422,176.150040 204.147522,180.647568 
	C203.196350,179.784210 202.405640,178.549194 201.619400,177.321167 
	C200.596207,177.949265 199.526657,178.999741 198.274887,179.306335 
	C192.748199,180.660110 186.924957,181.168106 181.678070,183.195831 
	C176.511078,185.192688 171.411133,185.912994 165.996384,186.349304 
	C160.875488,186.761917 155.838501,188.313095 150.797195,189.501663 
	C150.112869,189.662994 149.617920,190.627563 149.026642,191.556641 
	C146.323532,187.552353 143.629059,183.211639 140.867737,178.516083 
z"/>
<path fill="#792453" opacity="1.000000" stroke="none" 
	d="
M137.138641,148.954758 
	C138.517746,151.462662 139.896835,153.970551 141.422302,156.744614 
	C138.529526,157.943695 136.181808,158.916840 133.040558,159.958496 
	C130.498032,160.018021 128.749008,160.009018 126.891136,159.622284 
	C125.627846,158.830292 124.503548,158.213318 123.313828,158.036469 
	C117.901558,157.231949 112.418587,156.815964 107.060486,155.757004 
	C100.808441,154.521347 99.440941,155.532990 99.686661,161.869019 
	C97.562706,159.157608 95.742706,156.590714 94.186806,153.803024 
	C95.807724,152.617416 97.038055,151.265350 98.548820,150.771912 
	C101.316605,149.867950 104.249954,149.470886 107.114265,148.862442 
	C112.663986,152.490555 118.489159,154.507217 125.612885,152.054840 
	C126.395210,152.061539 126.663109,151.949951 126.931000,151.838379 
	C126.931007,151.838379 126.991295,151.902420 127.345230,151.928009 
	C128.741562,150.913528 129.783936,149.873489 130.826324,148.833435 
	C130.826324,148.833435 130.914078,148.813721 131.216354,148.924622 
	C132.941711,150.634659 134.364777,152.233810 135.472107,153.478134 
	C136.145660,151.649979 136.642151,150.302368 137.138641,148.954758 
z"/>
<path fill="#EEEDE2" opacity="1.000000" stroke="none" 
	d="
M173.020004,53.853928 
	C173.403091,54.422558 173.786179,54.991192 173.733032,55.675049 
	C171.662216,55.585827 170.027634,55.381382 168.191498,54.900169 
	C167.370422,54.401806 166.750931,54.180222 165.872253,53.698685 
	C163.899261,52.827946 162.203720,52.158901 160.468872,51.615215 
	C138.540848,44.743103 116.843666,44.914093 95.164726,53.827549 
	C94.408150,54.138855 93.928238,54.418499 93.217827,54.741379 
	C92.577583,55.012173 92.167831,55.239731 91.342255,55.524788 
	C89.527397,55.616497 88.128380,55.650711 86.830154,55.513443 
	C86.930946,55.341957 86.538704,55.275509 86.538704,55.275509 
	C97.348686,48.036827 109.649948,45.335358 122.270439,44.046631 
	C136.884247,42.554367 151.074585,44.883511 165.397385,50.426525 
	C168.345123,51.767853 170.682556,52.810890 173.020004,53.853928 
z"/>
<path fill="#F14A46" opacity="1.000000" stroke="none" 
	d="
M60.446053,166.425751 
	C60.803467,170.953735 61.145958,175.231201 61.240288,179.771606 
	C53.744953,170.700531 48.543613,160.381073 46.386711,148.404816 
	C49.997150,147.459000 53.170605,146.914032 56.968468,146.261841 
	C56.968468,150.032181 56.968468,153.348663 56.968468,156.665131 
	C57.639339,156.656525 58.310211,156.647903 58.981083,156.639282 
	C58.981083,150.089783 58.981083,143.540283 58.986816,136.542130 
	C58.994526,133.399902 58.996502,130.706329 59.003899,127.636566 
	C59.289539,125.859665 59.569759,124.458954 59.849983,123.058250 
	C59.936447,136.369461 60.022903,149.680679 60.073799,163.780029 
	C60.110390,164.773987 60.182541,164.979797 60.254696,165.185608 
	C60.313507,165.515488 60.372318,165.845352 60.446053,166.425751 
z"/>
<path fill="#CAEBF1" opacity="1.000000" stroke="none" 
	d="
M125.575233,71.272789 
	C138.989197,71.494812 152.433319,71.283257 165.798019,72.213348 
	C169.614319,72.478935 173.200180,76.055710 177.339935,78.194473 
	C177.788162,78.274811 177.842361,78.244225 177.412598,78.486496 
	C175.301682,79.544037 173.620514,80.359291 171.939346,81.174545 
	C163.231415,73.917259 155.229752,73.489799 146.289337,79.567474 
	C144.427979,78.540741 143.007797,77.222740 141.497162,77.109314 
	C137.384781,76.800522 133.234161,77.001068 128.972046,76.678734 
	C127.755356,74.662727 126.665298,72.967758 125.575233,71.272789 
z"/>
<path fill="#F6AF1B" opacity="1.000000" stroke="none" 
	d="
M173.525452,164.823441 
	C173.494751,165.602722 173.107407,167.397141 172.750015,167.391205 
	C170.122025,167.347488 167.480896,167.049179 164.889938,166.577942 
	C164.259262,166.463242 163.799744,165.407639 163.543884,165.111496 
	C162.339417,166.047195 161.305344,166.850540 160.100754,167.873856 
	C157.328445,163.149078 154.799728,158.164062 152.104599,153.270706 
	C149.324051,148.222229 146.381577,143.262924 143.261017,137.707230 
	C145.677765,136.306305 148.343430,135.462738 151.009094,134.619156 
	C154.656906,142.124771 158.304703,149.630402 162.045380,157.480240 
	C164.336853,165.401993 166.928497,167.086945 173.525452,164.823441 
z"/>
<path fill="#F44E43" opacity="1.000000" stroke="none" 
	d="
M215.949066,137.014557 
	C214.451736,144.892685 212.954422,152.770798 211.457092,160.648926 
	C210.796463,160.662399 210.135834,160.675888 209.475220,160.689362 
	C207.291641,156.167542 205.108063,151.645737 202.881287,146.429916 
	C202.453659,145.209824 202.069229,144.683746 201.684799,144.157669 
	C201.684799,144.157669 201.812790,144.146835 201.763245,143.942413 
	C201.451813,143.511871 201.189926,143.285721 200.928055,143.059570 
	C200.928055,143.059570 201.000000,143.008713 200.995270,142.639832 
	C201.018997,138.503174 201.047485,134.735428 201.431595,131.036804 
	C204.392136,135.402039 208.326996,136.691422 213.118347,136.278168 
	C214.033936,136.199203 215.004089,136.752808 215.949066,137.014557 
z"/>
<path fill="#F8961D" opacity="1.000000" stroke="none" 
	d="
M84.894997,98.162842 
	C85.077560,98.074150 85.260117,97.985451 85.780838,98.228516 
	C86.964096,101.699509 87.788582,104.863792 92.697708,103.654549 
	C97.748917,103.723045 102.354080,103.740005 107.424057,103.829132 
	C112.938866,103.869995 117.988869,103.838699 123.472328,103.831940 
	C125.933052,103.864731 127.960312,103.872993 130.295105,103.971146 
	C130.812347,104.101524 131.022064,104.142021 131.231796,104.182518 
	C129.278473,105.939560 127.325142,107.696602 124.836151,109.658371 
	C118.993835,109.312431 113.687195,108.761765 108.380554,108.211090 
	C108.380554,108.211090 108.198189,108.324097 107.984711,108.024490 
	C107.181885,107.773972 106.592522,107.823067 106.003166,107.872162 
	C100.897934,107.762573 96.275352,108.902588 92.330170,112.851776 
	C89.608894,111.840950 87.343651,110.955460 85.002045,109.878540 
	C84.818352,109.422783 84.642960,109.216263 84.337585,108.689316 
	C84.317322,107.804863 84.358963,107.298653 84.573822,106.523041 
	C84.648643,104.562798 84.550224,102.871948 84.391129,100.799316 
	C84.366409,99.904762 84.402359,99.391998 84.576729,98.809242 
	C84.862648,98.574455 84.922600,98.382317 84.894997,98.162842 
z"/>
<path fill="#D63F4B" opacity="1.000000" stroke="none" 
	d="
M162.391296,195.754837 
	C164.877213,195.513550 167.849869,194.818970 170.507385,195.450500 
	C177.675232,197.153915 184.445465,196.052917 191.102875,193.527374 
	C193.652924,192.559998 195.956253,190.227020 198.477570,190.053909 
	C203.156723,189.732727 202.921707,186.602448 203.642578,183.315369 
	C204.355637,185.832352 204.836197,188.631973 205.283813,191.942688 
	C204.154541,193.012619 203.058228,193.571457 201.640656,194.173737 
	C199.306168,195.103500 197.287888,195.978622 195.280685,196.878479 
	C190.830444,198.873566 186.385757,200.881058 181.579346,202.905655 
	C179.113495,203.857651 177.007126,204.787491 174.900757,205.717316 
	C173.035995,199.730316 168.287521,197.319366 162.391296,195.754837 
z"/>
<path fill="#D13A4F" opacity="1.000000" stroke="none" 
	d="
M129.987579,103.881256 
	C127.960312,103.872993 125.933052,103.864731 123.132156,103.603882 
	C117.225433,103.486526 112.092346,103.621750 106.959251,103.756973 
	C102.354080,103.740005 97.748917,103.723045 92.714165,103.387657 
	C92.185883,101.380714 92.087189,99.692192 91.988495,98.003670 
	C106.812004,98.003670 121.635521,98.003670 136.459030,98.003670 
	C136.946075,98.625259 137.433105,99.246857 137.920151,99.868446 
	C136.242889,100.866005 134.565643,101.863556 132.277328,103.000298 
	C131.106705,103.386742 130.547134,103.634003 129.987579,103.881256 
z"/>
<path fill="#0B264C" opacity="1.000000" stroke="none" 
	d="
M212.141373,196.998901 
	C213.663116,199.530945 215.780838,201.927170 216.404510,204.663879 
	C216.643921,205.714432 213.476227,207.541443 211.413422,208.685638 
	C209.681946,207.737625 208.051620,206.272263 207.169006,206.633530 
	C200.106018,209.524597 193.152176,212.693176 186.255859,215.968246 
	C185.272675,216.435150 184.777893,217.930466 184.057068,218.949799 
	C183.530960,219.527847 183.004852,220.105896 182.097733,220.527039 
	C181.839767,219.205948 182.073761,218.040451 182.059769,216.877945 
	C182.039047,215.155304 181.842484,213.434769 181.990799,211.478424 
	C188.218994,208.529770 194.177170,205.816055 200.349976,203.069580 
	C200.564621,203.036804 200.973816,202.888458 201.332550,202.868134 
	C205.174637,200.898163 208.658005,198.948532 212.141373,196.998901 
z"/>
<path fill="#F3F4F5" opacity="1.000000" stroke="none" 
	d="
M152.311646,86.205566 
	C158.122864,82.845467 162.882660,83.444756 165.812988,87.611992 
	C168.295090,91.141808 167.584839,96.529419 164.251831,99.331345 
	C162.286240,100.983742 160.476059,101.778053 158.366974,99.266853 
	C156.566132,97.122681 154.468491,95.168610 152.259247,93.441071 
	C149.236816,91.077675 149.566193,88.872208 152.311646,86.205566 
z"/>
<path fill="#EF4648" opacity="1.000000" stroke="none" 
	d="
M93.922699,154.023804 
	C95.742706,156.590714 97.562706,159.157608 99.690582,161.861984 
	C99.998459,161.999451 99.986206,162.005463 99.980896,162.267975 
	C99.990562,162.704865 100.005531,162.879257 100.020508,163.053665 
	C100.020508,163.053665 99.587601,163.190506 99.046837,163.187180 
	C98.299156,163.244644 98.092247,163.305420 97.885330,163.366180 
	C89.297295,163.288971 87.057190,161.639038 84.414894,152.877380 
	C84.333183,151.448074 84.387260,150.686111 84.531296,149.830658 
	C84.728951,149.467712 84.661797,149.244644 84.332497,148.667725 
	C84.298485,147.181290 84.351784,146.095093 84.744995,144.993011 
	C88.071518,143.308731 91.058121,141.640366 93.990562,140.356628 
	C91.936554,145.166733 90.386436,149.592651 93.922699,154.023804 
z"/>
<path fill="#F4583E" opacity="1.000000" stroke="none" 
	d="
M175.899704,126.022301 
	C175.899704,129.627853 175.899704,133.233414 175.899704,136.769043 
	C171.759125,137.310059 167.656189,137.846176 162.922302,138.464722 
	C161.861542,136.259232 160.525314,133.480972 159.451233,130.197205 
	C162.044479,127.750229 164.375580,125.808769 167.020691,124.074997 
	C169.831787,126.624641 172.560715,127.825302 175.899704,126.022301 
z"/>
<path fill="#F6563D" opacity="1.000000" stroke="none" 
	d="
M58.981087,136.990784 
	C58.981083,143.540283 58.981083,150.089783 58.981083,156.639282 
	C58.310211,156.647903 57.639339,156.656525 56.968468,156.665131 
	C56.968468,153.348663 56.968468,150.032181 56.968468,146.261841 
	C53.170605,146.914032 49.997150,147.459000 46.406757,148.006439 
	C45.266266,142.317612 44.542709,136.626328 44.132439,130.658997 
	C44.631279,130.929749 44.816837,131.476562 44.999893,132.441223 
	C45.880051,134.537720 46.473911,137.360931 47.701942,137.670776 
	C50.827839,138.459503 54.664974,139.229752 55.764008,134.520477 
	C57.023029,135.487244 58.002060,136.239014 58.981087,136.990784 
M46.707287,140.859848 
	C46.595299,140.962646 46.483311,141.065460 46.371323,141.168259 
	C46.483597,141.151245 46.595871,141.134216 46.707287,140.859848 
z"/>
<path fill="#E2553F" opacity="1.000000" stroke="none" 
	d="
M94.044724,139.971985 
	C91.058121,141.640366 88.071518,143.308731 84.645691,144.533203 
	C84.270813,132.415390 84.335152,120.741478 84.399490,109.067558 
	C84.642960,109.216263 84.818352,109.422783 84.969254,110.337585 
	C85.012825,116.660400 85.012825,122.332756 85.012825,128.202423 
	C86.905991,127.305710 88.161240,126.711143 89.416473,126.116585 
	C91.535828,129.526886 93.655182,132.937195 95.851822,136.913422 
	C95.300987,138.310242 94.672859,139.141113 94.044724,139.971985 
z"/>
<path fill="#AA3150" opacity="1.000000" stroke="none" 
	d="
M166.706696,123.867310 
	C164.375580,125.808769 162.044479,127.750229 159.426529,129.839676 
	C157.519577,127.737556 155.899460,125.487457 154.279358,123.237358 
	C153.819382,122.777695 153.359421,122.318031 152.899460,121.858368 
	C157.322342,118.008278 161.745239,114.158195 166.642883,110.452454 
	C167.769119,112.391708 168.420578,114.186623 169.027328,116.366386 
	C168.223984,119.123268 167.465347,121.495293 166.706696,123.867310 
z"/>
<path fill="#F56330" opacity="1.000000" stroke="none" 
	d="
M203.012131,167.626480 
	C203.040314,169.866165 203.040314,171.834015 203.040314,172.978653 
	C201.093887,173.257355 199.428375,173.099838 198.169434,173.740860 
	C190.444855,177.674088 182.285461,180.042694 173.694443,180.954041 
	C169.726700,181.374954 165.742142,181.637527 161.345062,181.946075 
	C163.265198,180.781586 165.503250,179.276199 167.969315,178.588547 
	C171.848907,177.506744 175.928162,177.157242 179.838318,176.164551 
	C184.603104,174.954880 189.384613,173.669357 193.957474,171.896957 
	C196.835464,170.781494 199.344116,168.713089 202.344437,166.989548 
	C202.774948,167.056168 202.879456,167.205399 203.012131,167.626480 
z"/>
<path fill="#1F4A77" opacity="1.000000" stroke="none" 
	d="
M82.002190,167.024780 
	C81.129791,167.207352 79.910408,167.853027 79.439308,167.500046 
	C75.274414,164.379303 73.698654,166.861374 72.298737,170.723633 
	C68.024071,166.126022 67.748695,160.420822 68.687302,154.069366 
	C69.999504,152.690796 70.896568,151.774689 72.115463,151.031555 
	C73.891533,153.409912 75.361908,155.604858 76.795685,157.823471 
	C78.403786,160.311874 77.461617,164.687408 82.079315,164.943298 
	C82.079315,164.943298 82.027275,165.009201 82.016403,165.318481 
	C82.004417,166.093445 82.003304,166.559097 82.002190,167.024780 
z"/>
<path fill="#F3AF1C" opacity="1.000000" stroke="none" 
	d="
M46.444595,107.951515 
	C47.295967,104.919456 48.147339,101.887405 49.414635,98.448227 
	C50.659458,96.882111 51.511219,95.738686 52.313011,94.561234 
	C54.805424,90.901062 57.278885,87.227982 59.759697,83.559906 
	C59.843884,88.727890 59.928070,93.895874 59.611767,99.612328 
	C54.955719,102.757706 50.700157,105.354614 46.444595,107.951515 
z"/>
<path fill="#081A3A" opacity="1.000000" stroke="none" 
	d="
M173.246765,53.634956 
	C170.682556,52.810890 168.345123,51.767853 165.760208,50.466331 
	C165.752136,49.309452 165.958878,48.400764 166.238174,47.514957 
	C166.719772,45.987514 166.859558,43.559700 167.835419,43.146824 
	C169.824707,42.305187 172.486206,41.868008 174.492844,42.487774 
	C179.297577,43.971771 183.915176,46.092663 188.528931,48.135723 
	C189.366837,48.506771 189.827744,49.729233 189.934937,50.640991 
	C188.263367,50.489052 187.119537,50.254768 185.582825,50.007553 
	C182.963699,49.374146 180.770294,48.551842 178.503113,48.182991 
	C175.499481,47.694321 174.308792,48.829010 176.039871,51.776478 
	C175.184433,52.322979 174.328979,52.869484 173.246765,53.634956 
z"/>
<path fill="#B0DEE9" opacity="1.000000" stroke="none" 
	d="
M72.304535,89.752342 
	C72.069565,86.351463 72.070641,82.697227 72.411659,78.556610 
	C74.103287,78.726753 75.454971,79.383278 76.806664,80.039803 
	C77.702782,79.957848 78.598907,79.875893 80.361870,79.837616 
	C85.606354,80.216599 89.984001,80.551903 94.597000,81.081146 
	C95.452827,82.077782 96.073288,82.880478 96.693756,83.683167 
	C90.189667,84.620102 83.657379,85.404518 77.200737,86.598091 
	C75.525833,86.907715 74.087555,88.497314 72.304535,89.752342 
z"/>
<path fill="#F75E34" opacity="1.000000" stroke="none" 
	d="
M216.058075,136.573853 
	C215.004089,136.752808 214.033936,136.199203 213.118347,136.278168 
	C208.326996,136.691422 204.392136,135.402039 201.414719,130.605667 
	C200.761871,127.410461 200.481552,124.715538 200.201233,122.020622 
	C200.160461,121.574890 200.119690,121.129150 200.429993,120.352417 
	C201.173996,120.014664 201.566925,120.007919 202.235657,120.131744 
	C203.334534,120.848419 204.157623,121.434540 204.984512,122.425842 
	C205.574478,127.660667 209.560104,129.507874 216.163177,128.010208 
	C216.164474,130.717865 216.165787,133.425507 216.058075,136.573853 
z"/>
<path fill="#942852" opacity="1.000000" stroke="none" 
	d="
M93.990570,140.356628 
	C94.672859,139.141113 95.300987,138.310242 96.048653,137.187714 
	C99.765465,140.665634 103.362740,144.435211 107.037140,148.533615 
	C104.249954,149.470886 101.316605,149.867950 98.548820,150.771912 
	C97.038055,151.265350 95.807724,152.617416 94.186806,153.803024 
	C90.386436,149.592651 91.936554,145.166733 93.990570,140.356628 
z"/>
<path fill="#ABDAE5" opacity="1.000000" stroke="none" 
	d="
M172.036957,81.501259 
	C173.620514,80.359291 175.301682,79.544037 177.434616,78.508484 
	C179.452164,78.952385 181.017944,79.616562 183.352844,80.140488 
	C186.655609,79.989830 189.189270,79.979431 191.722916,79.969032 
	C191.542816,81.412056 191.362701,82.855080 190.603027,84.648972 
	C185.296417,86.358902 180.569351,87.717972 175.842300,89.077042 
	C174.606384,86.660683 173.370483,84.244331 172.036957,81.501259 
z"/>
<path fill="#1C4570" opacity="1.000000" stroke="none" 
	d="
M184.474747,218.969574 
	C184.777893,217.930466 185.272675,216.435150 186.255859,215.968246 
	C193.152176,212.693176 200.106018,209.524597 207.169006,206.633530 
	C208.051620,206.272263 209.681946,207.737625 211.050430,208.714554 
	C202.387497,212.378113 193.639954,215.683731 184.474747,218.969574 
z"/>
<path fill="#F6981E" opacity="1.000000" stroke="none" 
	d="
M46.281876,108.262451 
	C50.700157,105.354614 54.955719,102.757706 59.533539,100.074310 
	C59.908051,102.693237 59.960304,105.398651 59.564835,108.560989 
	C54.516850,112.070000 48.111210,112.306465 45.131393,117.591736 
	C45.033436,116.738457 44.980858,116.249947 44.928280,115.761444 
	C45.325241,113.365425 45.722198,110.969406 46.281876,108.262451 
z"/>
<path fill="#213F62" opacity="1.000000" stroke="none" 
	d="
M176.379181,51.875858 
	C174.308792,48.829010 175.499481,47.694321 178.503113,48.182991 
	C180.770294,48.551842 182.963699,49.374146 185.744766,50.309128 
	C187.850510,51.437744 189.401443,52.251850 191.015472,53.401852 
	C194.398132,57.485722 197.717697,61.233696 201.067474,65.338943 
	C201.383118,68.120995 201.668533,70.545769 201.964600,72.992058 
	C201.975235,73.013573 202.013901,73.042236 202.013901,73.042236 
	C201.154388,72.140022 200.294861,71.237808 199.237061,69.753441 
	C197.670212,61.660751 189.310181,54.248837 181.897903,53.974403 
	C180.171432,53.308014 178.444946,52.641624 176.379181,51.875858 
z"/>
<path fill="#3C7198" opacity="1.000000" stroke="none" 
	d="
M200.135330,203.102325 
	C194.177170,205.816055 188.218994,208.529770 181.720291,211.486206 
	C180.816864,211.744339 180.453979,211.759781 179.916473,211.508148 
	C177.885284,209.527954 176.028687,207.814850 174.172073,206.101761 
	C174.172073,206.101761 174.557632,205.949371 174.729187,205.833344 
	C177.007126,204.787491 179.113495,203.857651 181.747833,203.223450 
	C184.275528,205.773758 186.381180,206.022644 189.356400,204.997223 
	C192.762482,203.823288 196.526703,203.688568 200.135330,203.102325 
z"/>
<path fill="#081D3C" opacity="1.000000" stroke="none" 
	d="
M201.037262,64.981674 
	C197.717697,61.233696 194.398132,57.485722 191.038116,53.129181 
	C191.009033,52.339096 191.020386,52.157585 191.031738,51.976070 
	C199.262878,55.223854 211.203522,68.837540 206.843201,75.983658 
	C206.510513,76.528893 206.121582,77.039818 205.025574,78.631561 
	C203.791626,76.638802 202.902664,75.203148 202.013794,73.404869 
	C202.013901,73.042236 201.975235,73.013573 202.337677,72.908905 
	C204.732056,69.646950 205.449112,66.769180 201.037262,64.981674 
z"/>
<path fill="#132E4F" opacity="1.000000" stroke="none" 
	d="
M63.033493,65.440140 
	C60.993492,69.208496 58.953491,72.976860 56.591885,77.339294 
	C53.127861,69.524323 56.673450,60.697693 64.981438,56.046169 
	C66.165840,56.026215 66.642952,56.048664 66.943832,56.356728 
	C64.780708,59.259922 60.838711,61.047688 63.033493,65.440140 
z"/>
<path fill="#D6ECF0" opacity="1.000000" stroke="none" 
	d="
M182.866837,76.309120 
	C180.139557,72.520157 177.412277,68.731194 174.622284,64.855118 
	C181.390427,62.438763 185.188034,64.528862 190.374115,73.588295 
	C187.990555,73.342850 185.937393,72.823235 183.525650,72.212868 
	C183.268448,73.812019 183.067642,75.060570 182.866837,76.309120 
z"/>
<path fill="#F66E2D" opacity="1.000000" stroke="none" 
	d="
M45.002396,132.023361 
	C44.816837,131.476562 44.631279,130.929749 44.212135,130.205399 
	C43.925449,128.946945 43.872345,127.866058 44.302887,126.449249 
	C52.052601,128.098495 54.825089,126.439163 54.999256,119.629471 
	C55.006016,118.511513 55.010872,117.766197 55.262997,117.274445 
	C56.024906,119.394333 56.539551,121.260666 57.054199,123.126999 
	C57.522095,123.081665 57.989994,123.036339 58.457893,122.991013 
	C58.641788,120.332169 58.825684,117.673317 59.221588,115.008682 
	C59.433601,115.002899 59.857674,114.993034 59.857674,114.993034 
	C59.908669,117.384811 59.959660,119.776581 59.930317,122.613304 
	C59.569759,124.458954 59.289539,125.859665 58.786156,127.781677 
	C57.772247,128.065781 56.981499,127.828590 56.227402,127.602386 
	C55.757469,128.942169 55.132725,130.723297 54.676723,132.023361 
	C51.129265,132.023361 48.065830,132.023361 45.002396,132.023361 
z"/>
<path fill="#F8A617" opacity="1.000000" stroke="none" 
	d="
M210.870972,99.066254 
	C211.522385,101.110832 212.173798,103.155418 212.886383,105.811356 
	C208.550995,107.719086 204.661392,106.517868 201.024200,104.001152 
	C201.010376,103.997192 200.996704,103.976364 201.001312,103.578781 
	C201.003494,102.116096 201.001068,101.050995 200.997345,99.598885 
	C201.140747,97.987114 201.285446,96.762337 201.459869,95.285866 
	C204.880630,96.659966 207.875793,97.863106 210.870972,99.066254 
z"/>
<path fill="#6F2152" opacity="1.000000" stroke="none" 
	d="
M99.994530,162.006500 
	C99.440941,155.532990 100.808441,154.521347 107.060486,155.757004 
	C112.418587,156.815964 117.901558,157.231949 123.313828,158.036469 
	C124.503548,158.213318 125.627846,158.830292 126.606171,159.769241 
	C125.698906,160.637772 124.949265,161.313156 124.239433,161.273636 
	C117.895042,160.920349 111.553688,160.489990 105.220146,159.975235 
	C102.610031,159.763107 102.559631,161.144958 103.010910,163.019272 
	C102.577209,163.059784 102.143517,163.100311 101.255478,162.897186 
	C100.529503,162.437500 100.257858,162.221481 99.986206,162.005463 
	C99.986206,162.005463 99.998459,161.999451 99.994530,162.006500 
z"/>
<path fill="#2C5A84" opacity="1.000000" stroke="none" 
	d="
M191.584671,124.939835 
	C191.735458,128.358688 191.886246,131.777557 192.041214,135.290894 
	C188.805939,135.290894 186.221405,135.290894 183.235825,135.290894 
	C183.235825,132.026520 183.235825,128.911743 183.769470,125.380081 
	C186.730286,124.955414 189.157486,124.947624 191.584671,124.939835 
z"/>
<path fill="#071B3D" opacity="1.000000" stroke="none" 
	d="
M180.091080,211.775223 
	C180.453979,211.759781 180.816864,211.744339 181.450272,211.721130 
	C181.842484,213.434769 182.039047,215.155304 182.059769,216.877945 
	C182.073761,218.040451 181.839767,219.205948 181.858017,220.700012 
	C179.421524,223.918030 177.601425,223.884232 175.929581,219.991364 
	C174.262558,216.109756 172.009277,212.479919 170.374832,208.380798 
	C171.967407,208.897461 173.089401,210.061768 174.456039,210.576752 
	C176.232651,211.246246 178.203705,211.399689 180.091080,211.775223 
z"/>
<path fill="#F2B428" opacity="1.000000" stroke="none" 
	d="
M210.884979,98.700836 
	C207.875793,97.863106 204.880630,96.659966 201.459869,95.285866 
	C201.285446,96.762337 201.140747,97.987114 200.798782,99.601578 
	C200.601517,99.991272 200.204285,99.990837 200.204285,99.990837 
	C200.204285,94.420753 200.204285,88.850662 200.204285,82.609596 
	C206.722977,86.438545 207.590118,93.225662 210.884979,98.700836 
M207.435547,95.495064 
	C207.435547,95.495064 207.512100,95.456070 207.435547,95.495064 
z"/>
<path fill="#F68720" opacity="1.000000" stroke="none" 
	d="
M59.942402,114.570358 
	C59.857674,114.993034 59.433601,115.002899 59.164726,114.720253 
	C57.602482,115.298706 56.309109,116.159798 55.015732,117.020889 
	C55.010872,117.766197 55.006016,118.511513 54.584854,119.629906 
	C52.540066,120.250458 50.806473,120.957848 49.312576,120.616425 
	C47.809837,120.272972 46.545551,118.886131 45.176773,117.956512 
	C48.111210,112.306465 54.516850,112.070000 59.481094,109.004486 
	C59.905762,110.709923 59.966446,112.428802 59.942402,114.570358 
z"/>
<path fill="#00011A" opacity="1.000000" stroke="none" 
	d="
M86.729355,55.684925 
	C88.128380,55.650711 89.527397,55.616497 91.737640,55.687691 
	C93.107048,55.718315 93.665245,55.643536 94.653511,55.599693 
	C97.681046,55.617889 100.278496,55.605145 103.331902,55.742718 
	C119.896034,55.789680 136.004211,55.686325 152.457977,55.602837 
	C153.495468,55.608990 154.187378,55.595268 155.324799,55.734318 
	C159.884689,55.758255 163.999039,55.629417 168.229950,55.459969 
	C168.346497,55.419357 168.393066,55.176937 168.393066,55.176941 
	C170.027634,55.381382 171.662216,55.585827 173.645294,55.866001 
	C171.283325,56.295643 168.572815,56.649559 164.960663,57.005463 
	C160.043091,57.008297 156.027176,57.009140 152.011261,57.009987 
	C151.561157,57.007263 151.111038,57.004539 149.856461,57.003403 
	C132.367477,57.003384 115.682976,57.001774 98.998474,57.000160 
	C94.914497,56.865047 90.830528,56.729931 86.626175,56.275841 
	C86.505806,55.956863 86.729355,55.684925 86.729355,55.684925 
z"/>
<path fill="#F96C32" opacity="1.000000" stroke="none" 
	d="
M167.020691,124.074997 
	C167.465347,121.495293 168.223984,119.123268 169.387573,116.371857 
	C171.835693,115.000702 173.878860,114.008942 175.922012,113.017166 
	C175.967346,117.045929 176.012680,121.074684 175.978851,125.562874 
	C172.560715,127.825302 169.831787,126.624641 167.020691,124.074997 
z"/>
<path fill="#2E506D" opacity="1.000000" stroke="none" 
	d="
M63.370468,65.279861 
	C60.838711,61.047688 64.780708,59.259922 67.231705,56.177078 
	C70.157028,54.161430 72.443298,52.032658 75.127861,51.220646 
	C77.904312,50.380840 81.054825,46.780708 84.062515,51.032547 
	C79.911171,53.417133 75.614891,55.586945 71.656868,58.257996 
	C68.775688,60.202347 66.341118,62.808495 63.370468,65.279861 
z"/>
<path fill="#9C2950" opacity="1.000000" stroke="none" 
	d="
M124.479919,200.948273 
	C126.750084,200.598495 129.458847,200.292068 132.610718,199.974548 
	C136.020294,199.460037 137.835007,199.226776 139.785446,203.107086 
	C141.268524,206.057617 146.826172,206.960052 150.777847,209.121185 
	C148.593765,210.030273 146.202774,210.591919 143.424591,211.104904 
	C140.032761,208.380463 137.323456,205.206528 133.926468,203.192490 
	C131.382935,201.684494 127.953499,201.670715 124.479919,200.948273 
z"/>
<path fill="#611D50" opacity="1.000000" stroke="none" 
	d="
M103.477867,163.046875 
	C102.559631,161.144958 102.610031,159.763107 105.220146,159.975235 
	C111.553688,160.489990 117.895042,160.920349 124.239433,161.273636 
	C124.949265,161.313156 125.698906,160.637772 126.715042,160.146957 
	C128.749008,160.009018 130.498032,160.018021 132.687622,160.052658 
	C131.022720,161.074310 128.952591,162.829544 126.805435,162.929474 
	C119.199448,163.283386 111.567154,163.071762 103.477867,163.046875 
z"/>
<path fill="#F6911C" opacity="1.000000" stroke="none" 
	d="
M201.038055,104.005112 
	C204.661392,106.517868 208.550995,107.719086 213.006958,106.161057 
	C213.782440,108.990891 214.498566,112.082375 214.827820,115.321548 
	C210.628433,113.980217 206.815903,112.491196 202.745880,110.885529 
	C201.978607,110.526947 201.468796,110.285004 200.971375,110.020744 
	C200.983749,109.998428 200.946487,110.038734 200.968552,109.607033 
	C201.006424,107.451927 201.022232,105.728516 201.038055,104.005112 
z"/>
<path fill="#BDE6EE" opacity="1.000000" stroke="none" 
	d="
M129.098694,76.999771 
	C133.234161,77.001068 137.384781,76.800522 141.497162,77.109314 
	C143.007797,77.222740 144.427979,78.540741 145.957977,79.702393 
	C145.422195,80.902367 144.817886,81.709221 144.001907,82.738396 
	C142.200684,82.377029 140.615921,81.322632 139.020584,81.306381 
	C135.562698,81.271156 132.099396,81.766998 128.269226,81.688065 
	C128.299667,79.886902 128.699173,78.443336 129.098694,76.999771 
z"/>
<path fill="#F87C29" opacity="1.000000" stroke="none" 
	d="
M89.429901,125.914146 
	C88.161240,126.711143 86.905991,127.305710 85.012825,128.202423 
	C85.012825,122.332756 85.012825,116.660400 85.045616,110.529007 
	C87.343651,110.955460 89.608894,111.840950 92.031570,113.031815 
	C91.134224,115.345375 90.079445,117.353546 88.971329,120.152756 
	C89.007652,122.428253 89.097321,123.912712 89.186981,125.397179 
	C89.186981,125.397179 89.443321,125.711708 89.429901,125.914146 
z"/>
<path fill="#3C7198" opacity="1.000000" stroke="none" 
	d="
M212.103912,196.595779 
	C208.658005,198.948532 205.174637,200.898163 201.340424,202.491486 
	C202.209030,199.981491 203.428497,197.827805 204.644028,195.681076 
	C204.253784,195.455444 203.107849,194.792862 201.961914,194.130295 
	C203.058228,193.571457 204.154541,193.012619 205.476639,192.257904 
	C207.147324,191.362137 208.592239,190.662216 210.666412,189.657486 
	C211.150513,191.917221 211.608475,194.054932 212.103912,196.595779 
z"/>
<path fill="#C4E8EF" opacity="1.000000" stroke="none" 
	d="
M94.361641,80.887199 
	C89.984001,80.551903 85.606354,80.216599 80.709877,79.786133 
	C82.191589,77.827026 84.192146,75.963074 86.474106,74.021103 
	C89.367088,73.573601 91.978676,73.204124 94.878647,73.264359 
	C94.849319,74.149780 94.531601,74.605492 94.056839,75.130890 
	C93.809074,75.265541 93.631401,75.364494 93.641411,75.390076 
	C93.718689,75.587746 93.832283,75.771217 93.973816,76.371033 
	C94.129219,78.151047 94.245430,79.519119 94.361641,80.887199 
z"/>
<path fill="#EE8327" opacity="1.000000" stroke="none" 
	d="
M108.632790,108.472824 
	C113.687195,108.761765 118.993835,109.312431 124.645607,109.932083 
	C123.124214,112.218170 121.257683,114.435272 119.459724,116.570930 
	C115.672020,113.764061 112.278526,111.249313 108.632790,108.472824 
z"/>
<path fill="#2E5E87" opacity="1.000000" stroke="none" 
	d="
M82.019524,164.590591 
	C77.461617,164.687408 78.403786,160.311874 76.795685,157.823471 
	C75.361908,155.604858 73.891533,153.409912 72.149673,150.625946 
	C71.265953,147.423935 70.669861,144.800491 70.073769,142.177048 
	C70.073769,142.177048 70.465347,142.023972 71.025848,142.062836 
	C73.361595,142.727356 75.136848,143.353027 76.912102,143.978683 
	C76.771706,151.185944 77.669670,158.134491 82.019524,164.590591 
z"/>
<path fill="#0C2646" opacity="1.000000" stroke="none" 
	d="
M84.402832,51.022766 
	C81.054825,46.780708 77.904312,50.380840 75.127861,51.220646 
	C72.443298,52.032658 70.157028,54.161430 67.407928,55.891464 
	C66.642952,56.048664 66.165840,56.026215 65.331131,55.992073 
	C66.421661,54.021175 67.869797,52.061974 70.014038,50.045574 
	C72.139832,49.323090 73.569519,48.657803 74.999214,47.992516 
	C75.439392,47.988644 75.879562,47.984776 77.032806,47.969460 
	C81.372154,46.308636 85.048714,44.167667 88.011375,49.007778 
	C86.921967,49.676182 85.832550,50.344585 84.402832,51.022766 
z"/>
<path fill="#00011A" opacity="1.000000" stroke="none" 
	d="
M68.288467,139.144302 
	C68.290604,139.805252 68.292740,140.466202 68.165230,141.836823 
	C67.972809,143.359085 67.910034,144.171692 67.847260,144.984283 
	C67.570724,143.721939 67.056320,142.460220 67.053108,141.197174 
	C66.999527,120.118500 66.997841,99.039627 67.047989,77.960953 
	C67.050102,77.070518 67.666245,76.181534 68.221672,75.521378 
	C68.371498,96.154182 68.295990,116.557495 68.129791,137.740723 
	C68.122231,138.728546 68.205353,138.936432 68.288467,139.144302 
z"/>
<path fill="#F37A27" opacity="1.000000" stroke="none" 
	d="
M45.131393,117.591736 
	C46.545551,118.886131 47.809837,120.272972 49.312576,120.616425 
	C50.806473,120.957848 52.540066,120.250458 54.582951,120.002563 
	C54.825089,126.439163 52.052601,128.098495 44.400520,126.053596 
	C44.197392,122.836052 44.380280,119.678238 44.745724,116.140930 
	C44.980858,116.249947 45.033436,116.738457 45.131393,117.591736 
z"/>
<path fill="#FA6C2B" opacity="1.000000" stroke="none" 
	d="
M216.267380,127.586067 
	C209.560104,129.507874 205.574478,127.660667 205.436661,122.418503 
	C208.590942,121.999878 211.296875,121.993790 214.336121,121.989685 
	C215.113693,121.982597 215.557953,121.973534 216.002213,121.964478 
	C216.125336,123.696960 216.248459,125.429443 216.267380,127.586067 
z"/>
<path fill="#E8E0C0" opacity="1.000000" stroke="none" 
	d="
M150.939331,134.297241 
	C148.343430,135.462738 145.677765,136.306305 142.960846,137.529816 
	C142.909592,137.909775 142.499557,137.893616 142.294403,137.881332 
	C140.080658,134.843140 139.081619,131.549301 142.902908,129.499695 
	C147.331711,127.124252 149.350555,130.427048 150.939331,134.297241 
z"/>
<path fill="#081A3A" opacity="1.000000" stroke="none" 
	d="
M88.391434,48.995911 
	C85.048714,44.167667 81.372154,46.308636 77.362907,47.964302 
	C77.022026,44.130245 80.186111,43.406063 82.749062,43.231220 
	C85.866089,43.018570 90.160995,42.854469 91.966408,44.654854 
	C94.697098,47.377941 91.222008,48.433403 88.391434,48.995911 
z"/>
<path fill="#3C7198" opacity="1.000000" stroke="none" 
	d="
M191.592957,124.564224 
	C189.157486,124.947624 186.730286,124.955414 183.879303,124.931335 
	C183.405243,122.912613 183.354980,120.925743 183.576538,118.710556 
	C186.190506,117.977859 188.532684,117.473495 190.874847,116.969131 
	C190.874847,116.969124 191.005630,117.390915 191.098648,117.822647 
	C191.324783,118.537094 191.527237,118.755547 191.799011,118.909752 
	C191.733078,120.669373 191.667160,122.428993 191.592957,124.564224 
z"/>
<path fill="#CAEBF1" opacity="1.000000" stroke="none" 
	d="
M182.912384,76.690735 
	C183.067642,75.060570 183.268448,73.812019 183.525650,72.212868 
	C185.937393,72.823235 187.990555,73.342850 190.403015,73.926865 
	C191.127045,75.730675 191.491791,77.470085 191.789719,79.589264 
	C189.189270,79.979431 186.655609,79.989830 183.700989,80.026138 
	C183.172638,79.058807 183.065277,78.065575 182.912384,76.690735 
z"/>
<path fill="#F68720" opacity="1.000000" stroke="none" 
	d="
M215.941696,121.585297 
	C215.557953,121.973534 215.113693,121.982597 214.333237,121.596436 
	C214.130554,117.726875 211.777878,116.797958 209.090729,117.083855 
	C204.298843,117.593674 203.092361,114.965530 203.003372,111.002167 
	C206.815903,112.491196 210.628433,113.980217 214.690201,115.721909 
	C215.253357,117.718422 215.567276,119.462273 215.941696,121.585297 
z"/>
<path fill="#D5EFF3" opacity="1.000000" stroke="none" 
	d="
M76.773788,79.659988 
	C75.454971,79.383278 74.103287,78.726753 72.418503,78.104660 
	C73.454605,75.218788 74.532036,72.105598 76.291916,69.443573 
	C77.539177,67.556946 79.402206,67.604126 80.260498,70.706207 
	C79.142761,73.834671 77.941833,76.557426 76.773788,79.659988 
z"/>
<path fill="#030521" opacity="1.000000" stroke="none" 
	d="
M84.337585,108.689316 
	C84.335152,120.741478 84.270813,132.415390 84.305771,144.549103 
	C84.351784,146.095093 84.298485,147.181290 84.265289,148.883484 
	C84.285385,149.499496 84.441338,149.924133 84.441338,149.924133 
	C84.387260,150.686111 84.333183,151.448074 84.216965,152.588531 
	C83.772110,151.761185 83.061348,150.556732 83.056229,149.349289 
	C82.987305,133.079971 83.011124,116.810226 83.042236,100.540634 
	C83.043449,99.906670 83.347801,99.273277 83.855606,98.573853 
	C84.200325,98.508087 84.438316,98.879234 84.438316,98.879234 
	C84.402359,99.391998 84.366409,99.904762 84.274940,101.185692 
	C84.279816,103.566719 84.340210,105.179581 84.400597,106.792442 
	C84.358963,107.298653 84.317322,107.804863 84.337585,108.689316 
z"/>
<path fill="#A1D5E4" opacity="1.000000" stroke="none" 
	d="
M176.041122,89.416267 
	C180.569351,87.717972 185.296417,86.358902 190.447601,84.996613 
	C190.915634,86.061920 190.959549,87.130463 190.541443,88.600037 
	C187.712402,89.686150 185.345367,90.371216 182.978333,91.056290 
	C180.732208,90.622681 178.486069,90.189087 176.041122,89.416267 
z"/>
<path fill="#D1DCE1" opacity="1.000000" stroke="none" 
	d="
M181.960693,54.324516 
	C189.310181,54.248837 197.670212,61.660751 198.973694,69.549408 
	C194.721573,63.247646 189.476318,57.739223 181.960693,54.324516 
z"/>
<path fill="#EDD18E" opacity="1.000000" stroke="none" 
	d="
M150.949081,176.598114 
	C148.815262,175.951462 146.621765,174.741699 144.272583,174.147400 
	C142.833511,173.783340 141.155640,174.363266 139.362503,174.777328 
	C138.556366,174.225250 137.972733,173.415115 137.644089,172.098602 
	C141.049149,171.176483 144.199203,170.760757 147.349274,170.345032 
	C148.507431,172.328247 149.665588,174.311447 150.949081,176.598114 
z"/>
<path fill="#FA7A23" opacity="1.000000" stroke="none" 
	d="
M176.003006,112.619446 
	C173.878860,114.008942 171.835693,115.000702 169.432281,115.987000 
	C168.420578,114.186623 167.769119,112.391708 166.920197,110.291222 
	C166.722733,109.985649 166.817230,109.867737 167.102875,109.797562 
	C167.580566,109.454758 167.772614,109.182129 167.964661,108.909500 
	C167.964661,108.909500 167.974289,108.984329 168.267700,108.934639 
	C169.032333,108.248245 169.503540,107.611534 169.974747,106.974831 
	C169.974747,106.974831 170.000000,107.000000 170.352417,107.009872 
	C172.447632,107.676933 174.190460,108.334106 175.933273,108.991287 
	C175.983505,110.068100 176.033752,111.144905 176.003006,112.619446 
z"/>
<path fill="#02163B" opacity="1.000000" stroke="none" 
	d="
M99.312775,57.272743 
	C115.682976,57.001774 132.367477,57.003384 149.518921,57.008766 
	C149.412552,57.312965 148.838058,57.877953 148.266174,57.875305 
	C132.052979,57.800323 115.840050,57.668156 99.312775,57.272743 
z"/>
<path fill="#5F9DB8" opacity="1.000000" stroke="none" 
	d="
M72.163597,122.031273 
	C72.145378,119.004128 72.127159,115.976982 72.503265,112.545074 
	C74.234566,112.422836 75.571526,112.705368 76.908493,112.987900 
	C76.946434,115.685760 76.984375,118.383629 76.564835,121.535690 
	C74.792770,122.003677 73.478188,122.017479 72.163597,122.031273 
z"/>
<path fill="#66A2C0" opacity="1.000000" stroke="none" 
	d="
M191.725418,103.054047 
	C191.774307,104.581947 191.823212,106.109840 191.361755,107.887238 
	C187.732086,108.344345 184.560791,108.488976 184.877808,113.162949 
	C184.419037,113.512207 184.061127,113.681503 183.703232,113.850800 
	C183.617798,111.759041 183.532364,109.667282 183.863922,107.108368 
	C185.699875,103.240387 188.513901,102.734779 191.725418,103.054047 
z"/>
<path fill="#87C2D8" opacity="1.000000" stroke="none" 
	d="
M183.173645,102.981178 
	C183.121979,101.590935 183.070312,100.200684 183.435974,98.294479 
	C185.095215,94.582253 186.700775,91.917839 190.859741,92.987762 
	C191.138138,94.732368 191.416534,96.476974 191.338531,98.606377 
	C187.028519,97.677666 185.340302,100.797585 183.173645,102.981178 
z"/>
<path fill="#E6E6D8" opacity="1.000000" stroke="none" 
	d="
M59.845329,83.210556 
	C57.278885,87.227982 54.805424,90.901062 52.313011,94.561234 
	C51.511219,95.738686 50.659458,96.882111 49.473011,98.060150 
	C50.980263,94.080109 52.731297,90.022369 54.751579,86.103416 
	C56.008793,83.664658 57.673363,81.435890 59.930962,77.896538 
	C59.930962,80.498375 59.930962,81.679787 59.845329,83.210556 
z"/>
<path fill="#386C95" opacity="1.000000" stroke="none" 
	d="
M76.959145,143.539490 
	C75.136848,143.353027 73.361595,142.727356 71.232178,142.022644 
	C70.936768,140.248245 70.995514,138.552917 71.407738,136.464661 
	C72.954208,135.645828 74.147194,135.219910 75.441811,134.757706 
	C75.807434,135.311035 76.337311,136.112930 76.867180,136.914825 
	C76.913521,138.976654 76.959854,141.038483 76.959145,143.539490 
z"/>
<path fill="#4D86AD" opacity="1.000000" stroke="none" 
	d="
M72.107727,122.471008 
	C73.478188,122.017479 74.792770,122.003677 76.501930,121.980988 
	C76.931564,124.670349 76.966621,127.368599 76.617783,130.361343 
	C74.865089,130.439270 73.496307,130.222702 72.127518,130.006134 
	C72.102295,127.641006 72.077080,125.275871 72.107727,122.471008 
z"/>
<path fill="#63859F" opacity="1.000000" stroke="none" 
	d="
M67.930161,145.420563 
	C67.910034,144.171692 67.972809,143.359085 68.184906,142.166718 
	C68.722107,141.861298 69.109993,141.935654 69.785828,142.093536 
	C70.669861,144.800491 71.265953,147.423935 71.827835,150.452972 
	C70.896568,151.774689 69.999504,152.690796 68.839935,153.619995 
	C68.389305,151.041016 68.201180,148.448929 67.930161,145.420563 
z"/>
<path fill="#96CEE1" opacity="1.000000" stroke="none" 
	d="
M190.925293,92.591080 
	C186.700775,91.917839 185.095215,94.582253 183.504272,97.882019 
	C183.102692,95.964668 183.050156,93.943810 182.987976,91.489624 
	C185.345367,90.371216 187.712402,89.686150 190.468994,88.995804 
	C190.902649,90.058495 190.946762,91.126442 190.925293,92.591080 
z"/>
<path fill="#4D86AD" opacity="1.000000" stroke="none" 
	d="
M183.547836,114.256668 
	C184.061127,113.681503 184.419037,113.512207 185.298294,113.167877 
	C187.493759,112.989159 189.167862,112.985466 190.841980,112.981766 
	C190.885498,114.045853 190.929016,115.109947 190.923691,116.571579 
	C188.532684,117.473495 186.190506,117.977859 183.694672,118.301254 
	C183.491486,116.967697 183.441971,115.815117 183.547836,114.256668 
z"/>
<path fill="#76B4CD" opacity="1.000000" stroke="none" 
	d="
M183.110886,103.380867 
	C185.340302,100.797585 187.028519,97.677666 191.399933,98.986084 
	C191.838409,100.119095 191.859070,101.257210 191.802582,102.724686 
	C188.513901,102.734779 185.699875,103.240387 184.005402,106.782524 
	C183.502655,105.876076 183.275391,104.828316 183.110886,103.380867 
z"/>
<path fill="#EEEDE2" opacity="1.000000" stroke="none" 
	d="
M147.236115,169.966415 
	C144.199203,170.760757 141.049149,171.176483 137.599579,171.801758 
	C137.994171,170.129990 138.143188,167.392731 139.489380,166.535507 
	C142.879471,164.376770 145.050919,167.292862 147.236115,169.966415 
z"/>
<path fill="#DE6032" opacity="1.000000" stroke="none" 
	d="
M91.568748,97.921112 
	C92.087189,99.692192 92.185883,101.380714 92.268127,103.336128 
	C87.788582,104.863792 86.964096,101.699509 86.082573,98.269089 
	C87.747093,97.931442 89.448044,97.884995 91.568748,97.921112 
z"/>
<path fill="#81BBD1" opacity="1.000000" stroke="none" 
	d="
M72.187027,105.994873 
	C72.143570,104.295616 72.100113,102.596359 72.083595,100.473946 
	C72.110542,100.050789 72.536728,99.982559 73.145699,99.980553 
	C74.803413,99.983238 75.852158,99.987930 76.900902,99.992615 
	C76.947868,102.035919 76.994827,104.079231 76.663567,106.553391 
	C74.919243,106.654457 73.553131,106.324661 72.187027,105.994873 
z"/>
<path fill="#872551" opacity="1.000000" stroke="none" 
	d="
M137.070679,148.618256 
	C136.642151,150.302368 136.145660,151.649979 135.472107,153.478134 
	C134.364777,152.233810 132.941711,150.634659 131.173996,148.909500 
	C131.844925,147.235672 132.860489,145.687851 134.425613,143.302429 
	C135.596222,145.564240 136.299454,146.923004 137.070679,148.618256 
z"/>
<path fill="#0B264C" opacity="1.000000" stroke="none" 
	d="
M179.916473,211.508148 
	C178.203705,211.399689 176.232651,211.246246 174.456039,210.576752 
	C173.089401,210.061768 171.967407,208.897461 170.366638,208.013367 
	C171.130707,207.349854 172.264755,206.694885 173.785431,206.070831 
	C176.028687,207.814850 177.885284,209.527954 179.916473,211.508148 
z"/>
<path fill="#70AFC5" opacity="1.000000" stroke="none" 
	d="
M72.138176,106.425949 
	C73.553131,106.324661 74.919243,106.654457 76.591919,106.986343 
	C76.943703,108.704544 76.988914,110.420639 76.971313,112.562317 
	C75.571526,112.705368 74.234566,112.422836 72.559540,112.096252 
	C72.177437,110.320473 72.133377,108.588753 72.138176,106.425949 
z"/>
<path fill="#4780A5" opacity="1.000000" stroke="none" 
	d="
M72.057953,130.388748 
	C73.496307,130.222702 74.865089,130.439270 76.549088,130.804962 
	C76.903473,132.660385 76.942642,134.366684 76.924500,136.493912 
	C76.337311,136.112930 75.807434,135.311035 75.441811,134.757706 
	C74.147194,135.219910 72.954208,135.645828 71.467941,136.044556 
	C71.445900,134.268692 71.717140,132.520035 72.057953,130.388748 
z"/>
<path fill="#5791B3" opacity="1.000000" stroke="none" 
	d="
M190.915298,112.669983 
	C189.167862,112.985466 187.493759,112.989159 185.399139,112.987923 
	C184.560791,108.488976 187.732086,108.344345 191.296204,108.212860 
	C191.490204,109.645378 191.239410,111.001785 190.915298,112.669983 
z"/>
<path fill="#EE8327" opacity="1.000000" stroke="none" 
	d="
M176.017639,108.634659 
	C174.190460,108.334106 172.447632,107.676933 170.340118,106.996674 
	C171.226532,105.146309 172.477646,103.319023 173.728760,101.491737 
	C174.149033,101.488907 174.569290,101.486084 174.989563,101.483253 
	C175.360367,103.748184 175.731171,106.013107 176.017639,108.634659 
z"/>
<path fill="#90CADA" opacity="1.000000" stroke="none" 
	d="
M76.975243,99.568283 
	C75.852158,99.987930 74.803413,99.983238 73.360519,99.959885 
	C73.502548,97.693420 71.432320,94.069344 76.498367,93.996658 
	C76.946701,95.707573 76.998138,97.425751 76.975243,99.568283 
z"/>
<path fill="#D75041" opacity="1.000000" stroke="none" 
	d="
M200.107971,122.479202 
	C200.481552,124.715538 200.761871,127.410461 201.059082,130.536530 
	C201.047485,134.735428 201.018997,138.503174 200.958496,142.661453 
	C200.622543,136.347244 200.318619,129.642517 200.107971,122.479202 
z"/>
<path fill="#9C2950" opacity="1.000000" stroke="none" 
	d="
M85.090500,200.500336 
	C85.161858,199.681702 85.510857,198.589478 85.669899,198.616470 
	C88.402794,199.080338 91.112259,199.682312 93.913391,200.588104 
	C92.224251,201.077209 90.448570,201.232193 88.401009,201.639008 
	C87.179329,201.509781 86.229530,201.128708 85.090500,200.500336 
z"/>
<path fill="#02163B" opacity="1.000000" stroke="none" 
	d="
M152.319229,57.279308 
	C156.027176,57.009140 160.043091,57.008297 164.519806,57.012230 
	C160.862793,57.194218 156.744995,57.371426 152.319229,57.279308 
z"/>
<path fill="#D75041" opacity="1.000000" stroke="none" 
	d="
M201.959869,120.001175 
	C201.566925,120.007919 201.173996,120.014664 200.486298,120.020111 
	C200.127213,116.990921 200.062881,113.963020 200.278748,110.482574 
	C200.558929,110.030029 200.946487,110.038734 200.946487,110.038734 
	C200.946487,110.038734 200.983749,109.998428 200.961578,110.452492 
	C201.279541,113.938095 201.619705,116.969635 201.959869,120.001175 
z"/>
<path fill="#081A3A" opacity="1.000000" stroke="none" 
	d="
M74.782852,47.757263 
	C73.569519,48.657803 72.139832,49.323090 70.355309,49.994270 
	C71.522484,49.174118 73.044479,48.348064 74.782852,47.757263 
z"/>
<path fill="#872551" opacity="1.000000" stroke="none" 
	d="
M130.498932,148.825104 
	C129.783936,149.873489 128.741562,150.913528 127.301308,151.925842 
	C127.992805,150.870987 129.082169,149.843872 130.498932,148.825104 
z"/>
<path fill="#0B264C" opacity="1.000000" stroke="none" 
	d="
M190.826660,51.862064 
	C191.020386,52.157585 191.009033,52.339096 190.975021,52.793282 
	C189.401443,52.251850 187.850510,51.437744 186.137665,50.322063 
	C187.119537,50.254768 188.263367,50.489052 189.735092,50.866425 
	C190.177292,51.310070 190.363480,51.556252 190.826660,51.862064 
z"/>
<path fill="#D63F4B" opacity="1.000000" stroke="none" 
	d="
M152.281647,194.288239 
	C153.361572,194.258743 154.558960,194.525925 155.914825,195.057846 
	C154.848557,195.076691 153.623856,194.830811 152.281647,194.288239 
z"/>
<path fill="#F37A27" opacity="1.000000" stroke="none" 
	d="
M200.968552,109.607033 
	C200.946487,110.038734 200.558929,110.030029 200.365219,110.037437 
	C200.123016,108.310112 200.074524,106.575371 200.311798,104.415207 
	C200.597580,103.989784 200.996704,103.976364 200.996704,103.976364 
	C200.996704,103.976364 201.010376,103.997192 201.024216,104.001152 
	C201.022232,105.728516 201.006424,107.451927 200.968552,109.607033 
z"/>
<path fill="#E2553F" opacity="1.000000" stroke="none" 
	d="
M89.289917,125.057785 
	C89.097321,123.912712 89.007652,122.428253 88.957336,120.505478 
	C89.128746,121.617584 89.260803,123.167992 89.289917,125.057785 
z"/>
<path fill="#F6911C" opacity="1.000000" stroke="none" 
	d="
M201.001312,103.578781 
	C200.996704,103.976364 200.597580,103.989784 200.397980,103.991699 
	C200.141098,102.921837 200.083801,101.850067 200.115402,100.384567 
	C200.204285,99.990837 200.601517,99.991272 200.800079,99.988579 
	C201.001068,101.050995 201.003494,102.116096 201.001312,103.578781 
z"/>
<path fill="#2E5E87" opacity="1.000000" stroke="none" 
	d="
M82.379944,167.019470 
	C82.003304,166.559097 82.004417,166.093445 82.031342,165.279602 
	C82.681808,165.433990 83.306465,165.936554 84.102341,166.697906 
	C83.768280,166.975861 83.262993,166.995010 82.379944,167.019470 
z"/>
<path fill="#EE8327" opacity="1.000000" stroke="none" 
	d="
M169.697418,107.074326 
	C169.503540,107.611534 169.032333,108.248245 168.235535,108.914963 
	C168.413315,108.354591 168.916718,107.764206 169.697418,107.074326 
z"/>
<path fill="#DE6032" opacity="1.000000" stroke="none" 
	d="
M130.295105,103.971146 
	C130.547134,103.634003 131.106705,103.386742 131.984161,103.160652 
	C132.109726,103.459373 131.917374,103.736931 131.478424,104.098495 
	C131.022064,104.142021 130.812347,104.101524 130.295105,103.971146 
z"/>
<path fill="#D75041" opacity="1.000000" stroke="none" 
	d="
M201.727325,144.480576 
	C202.069229,144.683746 202.453659,145.209824 202.803925,146.088196 
	C202.436462,145.894806 202.103165,145.349136 201.727325,144.480576 
z"/>
<path fill="#782253" opacity="1.000000" stroke="none" 
	d="
M75.868271,185.733337 
	C75.475372,185.794373 74.916275,185.606949 74.201096,185.157471 
	C74.597366,185.091919 75.149727,185.288406 75.868271,185.733337 
z"/>
<path fill="#EE8327" opacity="1.000000" stroke="none" 
	d="
M106.328476,107.997391 
	C106.592522,107.823067 107.181885,107.773972 107.904510,107.953262 
	C107.576454,108.161957 107.115112,108.142288 106.328476,107.997391 
z"/>
<path fill="#F4F3EB" opacity="1.000000" stroke="none" 
	d="
M197.815811,157.064957 
	C197.583466,156.963623 197.312317,156.661865 197.019394,156.137939 
	C197.257431,156.232025 197.517212,156.548279 197.815811,157.064957 
z"/>
<path fill="#D75041" opacity="1.000000" stroke="none" 
	d="
M200.966705,143.324371 
	C201.189926,143.285721 201.451813,143.511871 201.747620,144.004730 
	C201.522827,144.044022 201.264084,143.816605 200.966705,143.324371 
z"/>
<path fill="#D63F4B" opacity="1.000000" stroke="none" 
	d="
M159.264908,195.610077 
	C159.222549,195.247818 159.470795,195.174973 159.870514,195.417664 
	C159.963913,195.528870 159.497437,195.695175 159.264908,195.610077 
z"/>
<path fill="#782253" opacity="1.000000" stroke="none" 
	d="
M73.981812,184.711273 
	C73.747208,184.877014 73.465630,184.710556 73.119568,184.227081 
	C73.288475,184.167633 73.581726,184.323975 73.981812,184.711273 
z"/>
<path fill="#957039" opacity="1.000000" stroke="none" 
	d="
M86.830154,55.513443 
	C86.729355,55.684925 86.505806,55.956863 86.336868,56.000988 
	C86.071060,55.799313 86.077904,55.556713 86.363579,55.296413 
	C86.538704,55.275509 86.930946,55.341957 86.830154,55.513443 
z"/>
<path fill="#EDD18E" opacity="1.000000" stroke="none" 
	d="
M151.852081,177.490356 
	C151.685638,177.589401 151.467300,177.435516 151.154999,177.060028 
	C151.285446,176.990234 151.531830,177.123230 151.852081,177.490356 
z"/>
<path fill="#EE8327" opacity="1.000000" stroke="none" 
	d="
M167.696381,108.972733 
	C167.772614,109.182129 167.580566,109.454758 167.163269,109.842941 
	C167.101379,109.650986 167.264755,109.343483 167.696381,108.972733 
z"/>
<path fill="#952850" opacity="1.000000" stroke="none" 
	d="
M60.365631,165.036896 
	C60.182541,164.979797 60.110390,164.773987 60.076752,164.243591 
	C60.235695,164.242065 60.356129,164.565109 60.365631,165.036896 
z"/>
<path fill="#792453" opacity="1.000000" stroke="none" 
	d="
M98.024384,163.492889 
	C98.092247,163.305420 98.299156,163.244644 98.825218,163.236359 
	C98.817383,163.399124 98.490402,163.509369 98.024384,163.492889 
z"/>
<path fill="#792453" opacity="1.000000" stroke="none" 
	d="
M99.980896,162.267975 
	C100.257858,162.221481 100.529503,162.437500 100.928635,162.885635 
	C100.881737,163.136749 100.707359,163.155731 100.276741,163.114197 
	C100.005531,162.879257 99.990562,162.704865 99.980896,162.267975 
z"/>
<path fill="#E2553F" opacity="1.000000" stroke="none" 
	d="
M84.576729,98.809242 
	C84.438316,98.879234 84.200325,98.508087 84.158417,98.291985 
	C84.116516,98.075882 84.514420,98.052582 84.704712,98.107712 
	C84.922600,98.382317 84.862648,98.574455 84.576729,98.809242 
z"/>
<path fill="#872551" opacity="1.000000" stroke="none" 
	d="
M126.677673,151.788528 
	C126.663109,151.949951 126.395210,152.061539 126.023079,152.008652 
	C126.087341,151.809021 126.255844,151.773865 126.677673,151.788528 
z"/>
<path fill="#4D86AD" opacity="1.000000" stroke="none" 
	d="
M191.782028,118.669998 
	C191.527237,118.755547 191.324783,118.537094 191.108032,118.043251 
	C191.331879,117.956451 191.578766,118.155823 191.782028,118.669998 
z"/>
<path fill="#081633" opacity="1.000000" stroke="none" 
	d="
M94.213875,75.061203 
	C94.531601,74.605492 94.849319,74.149780 95.233597,73.415543 
	C98.341446,70.322227 101.703644,69.942131 105.816177,72.258224 
	C106.768250,75.495605 107.266388,78.285530 107.764534,81.075455 
	C104.931503,84.348701 101.727394,86.272369 97.023170,83.810745 
	C96.073288,82.880478 95.452827,82.077782 94.597000,81.081146 
	C94.245430,79.519119 94.129219,78.151047 94.097672,76.163528 
	C94.182320,75.544098 94.213875,75.061203 94.213875,75.061203 
z"/>
<path fill="#081633" opacity="1.000000" stroke="none" 
	d="
M128.972046,76.678734 
	C128.699173,78.443336 128.299667,79.886902 127.794571,81.695457 
	C122.266167,86.130836 119.821152,86.004326 115.211533,80.790161 
	C115.249107,77.741524 115.610817,75.334358 115.972534,72.927185 
	C118.931343,72.317467 121.890160,71.707748 125.212097,71.185410 
	C126.665298,72.967758 127.755356,74.662727 128.972046,76.678734 
z"/>
<path fill="#CAEBF1" opacity="1.000000" stroke="none" 
	d="
M115.771851,72.608917 
	C115.610817,75.334358 115.249107,77.741524 114.940933,80.572311 
	C112.888016,81.016472 110.781570,81.037010 108.219826,81.066505 
	C107.266388,78.285530 106.768250,75.495605 106.120003,72.358139 
	C109.170319,72.103943 112.370735,72.197296 115.771851,72.608917 
z"/>
<path fill="#9C2950" opacity="1.000000" stroke="none" 
	d="
M96.472916,200.950119 
	C98.518936,200.750366 101.002892,200.594162 103.723061,200.668091 
	C101.609795,200.930054 99.260323,200.961868 96.472916,200.950119 
z"/>
<path fill="#9C2950" opacity="1.000000" stroke="none" 
	d="
M106.427315,200.949875 
	C107.195137,200.757965 108.354149,200.611420 109.738815,200.688110 
	C108.915817,200.939301 107.867157,200.967270 106.427315,200.949875 
z"/>
<path fill="#9C2950" opacity="1.000000" stroke="none" 
	d="
M113.349060,200.950043 
	C113.569832,200.784363 114.114037,200.657425 114.813919,200.716522 
	C114.537231,200.931305 114.104858,200.960037 113.349060,200.950043 
z"/>
<path fill="#9C2950" opacity="1.000000" stroke="none" 
	d="
M117.259308,200.942001 
	C117.211731,200.563477 117.470375,200.479675 117.888779,200.791534 
	C117.983208,200.922470 117.500214,200.972000 117.259308,200.942001 
z"/>
<path fill="#63859F" opacity="1.000000" stroke="none" 
	d="
M68.457123,139.026749 
	C68.205353,138.936432 68.122231,138.728546 68.143890,138.201782 
	C68.374367,138.225006 68.500069,138.567093 68.457123,139.026749 
z"/>
<path fill="#F7B71A" opacity="1.000000" stroke="none" 
	d="
M95.441383,53.795887 
	C116.843666,44.914093 138.540848,44.743103 160.468872,51.615215 
	C162.203720,52.158901 163.899261,52.827946 165.393036,53.706814 
	C141.929138,53.915222 118.685265,53.855556 95.441383,53.795887 
z"/>
<path fill="#FDC326" opacity="1.000000" stroke="none" 
	d="
M95.164726,53.827549 
	C118.685265,53.855556 141.929138,53.915222 165.652222,53.966763 
	C166.750931,54.180222 167.370422,54.401806 168.191498,54.900166 
	C168.393066,55.176937 168.346497,55.419357 167.789276,55.292091 
	C163.114456,55.303734 158.996872,55.442638 154.879272,55.581543 
	C154.187378,55.595268 153.495468,55.608990 152.092682,55.400803 
	C140.964203,55.120869 130.546265,54.986286 120.129204,55.035084 
	C114.377373,55.062023 108.626991,55.396534 102.875954,55.592400 
	C100.278496,55.605145 97.681046,55.617889 94.511139,55.336205 
	C93.775230,54.927227 93.611778,54.812687 93.448326,54.698143 
	C93.928238,54.418499 94.408150,54.138855 95.164726,53.827549 
z"/>
<path fill="#957039" opacity="1.000000" stroke="none" 
	d="
M93.217827,54.741379 
	C93.611778,54.812687 93.775230,54.927227 94.081055,55.305260 
	C93.665245,55.643536 93.107048,55.718315 92.153473,55.630196 
	C92.167831,55.239731 92.577583,55.012173 93.217827,54.741379 
z"/>
<path fill="#F75E34" opacity="1.000000" stroke="none" 
	d="
M44.999893,132.441223 
	C48.065830,132.023361 51.129265,132.023361 54.676723,132.023361 
	C55.132725,130.723297 55.757469,128.942169 56.227402,127.602386 
	C56.981499,127.828590 57.772247,128.065781 58.780739,128.157867 
	C58.996502,130.706329 58.994526,133.399902 58.986816,136.542130 
	C58.002060,136.239014 57.023029,135.487244 55.764008,134.520477 
	C54.664974,139.229752 50.827839,138.459503 47.701942,137.670776 
	C46.473911,137.360931 45.880051,134.537720 44.999893,132.441223 
z"/>
<path fill="#DE6032" opacity="1.000000" stroke="none" 
	d="
M107.424057,103.829132 
	C112.092346,103.621750 117.225433,103.486526 122.698700,103.579353 
	C117.988869,103.838699 112.938866,103.869995 107.424057,103.829132 
z"/>
<path fill="#E2553F" opacity="1.000000" stroke="none" 
	d="
M84.573822,106.523041 
	C84.340210,105.179581 84.279816,103.566719 84.335617,101.567474 
	C84.550224,102.871948 84.648643,104.562798 84.573822,106.523041 
z"/>
<path fill="#4780A5" opacity="1.000000" stroke="none" 
	d="
M201.640656,194.173737 
	C203.107849,194.792862 204.253784,195.455444 204.644028,195.681076 
	C203.428497,197.827805 202.209030,199.981491 200.981689,202.511826 
	C200.973816,202.888458 200.564621,203.036804 200.349976,203.069565 
	C196.526703,203.688568 192.762482,203.823288 189.356400,204.997223 
	C186.381180,206.022644 184.275528,205.773758 182.107300,203.201294 
	C186.385757,200.881058 190.830444,198.873566 195.280685,196.878479 
	C197.287888,195.978622 199.306168,195.103500 201.640656,194.173737 
z"/>
<path fill="#E2553F" opacity="1.000000" stroke="none" 
	d="
M84.531296,149.830658 
	C84.441338,149.924133 84.285385,149.499496 84.352592,149.283737 
	C84.661797,149.244644 84.728951,149.467712 84.531296,149.830658 
z"/>
<path fill="#F75E34" opacity="1.000000" stroke="none" 
	d="
M46.707718,140.988525 
	C46.595871,141.134216 46.483597,141.151245 46.371323,141.168259 
	C46.483311,141.065460 46.595299,140.962646 46.707718,140.988525 
z"/>
<path fill="#F37A27" opacity="1.000000" stroke="none" 
	d="
M202.235657,120.131744 
	C201.619705,116.969635 201.279541,113.938095 200.949188,110.474808 
	C201.468796,110.285004 201.978607,110.526947 202.745880,110.885529 
	C203.092361,114.965530 204.298843,117.593674 209.090729,117.083855 
	C211.777878,116.797958 214.130554,117.726875 213.999939,121.594467 
	C211.296875,121.993790 208.590942,121.999878 205.432846,122.013306 
	C204.157623,121.434540 203.334534,120.848419 202.235657,120.131744 
z"/>
<path fill="#0B264C" opacity="1.000000" stroke="none" 
	d="
M201.067474,65.338943 
	C205.449112,66.769180 204.732056,69.646950 202.327057,72.887390 
	C201.668533,70.545769 201.383118,68.120995 201.067474,65.338943 
z"/>
<path fill="#F37A27" opacity="1.000000" stroke="none" 
	d="
M55.262997,117.274445 
	C56.309109,116.159798 57.602482,115.298706 58.952717,114.726044 
	C58.825684,117.673317 58.641788,120.332169 58.457893,122.991013 
	C57.989994,123.036339 57.522095,123.081665 57.054199,123.126999 
	C56.539551,121.260666 56.024906,119.394333 55.262997,117.274445 
z"/>
<path fill="#F8A617" opacity="1.000000" stroke="none" 
	d="
M207.473816,95.475571 
	C207.512100,95.456070 207.435547,95.495064 207.473816,95.475571 
z"/>
<path fill="#957039" opacity="1.000000" stroke="none" 
	d="
M103.331902,55.742714 
	C108.626991,55.396534 114.377373,55.062023 120.129204,55.035084 
	C130.546265,54.986286 140.964203,55.120869 151.747086,55.380928 
	C136.004211,55.686325 119.896034,55.789680 103.331902,55.742714 
z"/>
<path fill="#957039" opacity="1.000000" stroke="none" 
	d="
M155.324799,55.734318 
	C158.996872,55.442638 163.114456,55.303734 167.672729,55.332703 
	C163.999039,55.629417 159.884689,55.758255 155.324799,55.734318 
z"/>
<path fill="#F0F3F4" opacity="1.000000" stroke="none" 
	d="
M94.056839,75.130890 
	C94.213875,75.061203 94.182320,75.544098 94.058472,75.751595 
	C93.832283,75.771217 93.718689,75.587746 93.641411,75.390076 
	C93.631401,75.364494 93.809074,75.265541 94.056839,75.130890 
z"/>
</svg>